<svg
  width="24"
  height="24"
  viewBox="0 0 24 24"
  fill="fillColor"
  xmlns="http://www.w3.org/2000/svg"
>
  <path
    fill-rule="evenodd"
    clip-rule="evenodd"
    d="M11.1818 15.0908C9.47782 15.0908 8.09082 13.7038 8.09082 11.9998C8.09082 10.2958 9.47782 8.90881 11.1818 8.90881C12.8858 8.90881 14.2728 10.2958 14.2728 11.9998C14.2728 13.7038 12.8858 15.0908 11.1818 15.0908ZM12.9547 2.04382C9.95372 1.76182 7.01872 2.82482 4.90572 4.95282C2.79172 7.07982 1.75072 10.0228 2.05072 13.0258C2.40872 16.5978 4.65972 19.7078 7.92672 21.1408C9.23372 21.7138 10.6197 21.9948 11.9957 21.9948C14.1637 21.9948 16.3087 21.2958 18.0797 19.9398C18.5187 19.6038 18.6017 18.9758 18.2657 18.5368C17.9297 18.0998 17.3027 18.0168 16.8637 18.3518C14.5457 20.1268 11.4297 20.4908 8.72972 19.3088C6.16172 18.1828 4.32272 15.6388 4.04072 12.8258C3.80072 10.4208 4.63272 8.06482 6.32472 6.36182C8.01472 4.65982 10.3667 3.80782 12.7697 4.03582C16.8247 4.41282 19.9997 8.00982 19.9997 12.2248V12.8998C19.9997 13.3678 19.8137 13.8038 19.4747 14.1278C19.1367 14.4518 18.6887 14.6178 18.2217 14.5978C17.3277 14.5588 16.5997 13.7178 16.5997 12.7238V8.39982C16.5997 7.84682 16.1527 7.39982 15.5997 7.39982C15.0907 7.39982 14.6887 7.78282 14.6247 8.27482C13.7167 7.43482 12.5127 6.90882 11.1817 6.90882C8.37472 6.90882 6.09072 9.19382 6.09072 11.9998C6.09072 14.8068 8.37472 17.0908 11.1817 17.0908C12.8817 17.0908 14.3807 16.2448 15.3057 14.9608C15.9507 15.9008 16.9737 16.5448 18.1337 16.5958C19.1467 16.6498 20.1207 16.2778 20.8577 15.5728C21.5947 14.8678 21.9997 13.9188 21.9997 12.8998V12.2248C21.9997 6.98782 18.0277 2.51682 12.9547 2.04382Z"
    fill="#fillColor"
  />
  <mask
    id="mask0_1948_23174"
    style="mask-type: luminance"
    maskUnits="userSpaceOnUse"
    x="2"
    y="1"
    width="20"
    height="21"
  >
    <path
      fill-rule="evenodd"
      clip-rule="evenodd"
      d="M11.1818 15.0908C9.47782 15.0908 8.09082 13.7038 8.09082 11.9998C8.09082 10.2958 9.47782 8.90881 11.1818 8.90881C12.8858 8.90881 14.2728 10.2958 14.2728 11.9998C14.2728 13.7038 12.8858 15.0908 11.1818 15.0908ZM12.9547 2.04382C9.95372 1.76182 7.01872 2.82482 4.90572 4.95282C2.79172 7.07982 1.75072 10.0228 2.05072 13.0258C2.40872 16.5978 4.65972 19.7078 7.92672 21.1408C9.23372 21.7138 10.6197 21.9948 11.9957 21.9948C14.1637 21.9948 16.3087 21.2958 18.0797 19.9398C18.5187 19.6038 18.6017 18.9758 18.2657 18.5368C17.9297 18.0998 17.3027 18.0168 16.8637 18.3518C14.5457 20.1268 11.4297 20.4908 8.72972 19.3088C6.16172 18.1828 4.32272 15.6388 4.04072 12.8258C3.80072 10.4208 4.63272 8.06482 6.32472 6.36182C8.01472 4.65982 10.3667 3.80782 12.7697 4.03582C16.8247 4.41282 19.9997 8.00982 19.9997 12.2248V12.8998C19.9997 13.3678 19.8137 13.8038 19.4747 14.1278C19.1367 14.4518 18.6887 14.6178 18.2217 14.5978C17.3277 14.5588 16.5997 13.7178 16.5997 12.7238V8.39982C16.5997 7.84682 16.1527 7.39982 15.5997 7.39982C15.0907 7.39982 14.6887 7.78282 14.6247 8.27482C13.7167 7.43482 12.5127 6.90882 11.1817 6.90882C8.37472 6.90882 6.09072 9.19382 6.09072 11.9998C6.09072 14.8068 8.37472 17.0908 11.1817 17.0908C12.8817 17.0908 14.3807 16.2448 15.3057 14.9608C15.9507 15.9008 16.9737 16.5448 18.1337 16.5958C19.1467 16.6498 20.1207 16.2778 20.8577 15.5728C21.5947 14.8678 21.9997 13.9188 21.9997 12.8998V12.2248C21.9997 6.98782 18.0277 2.51682 12.9547 2.04382Z"
      fill="white"
    />
  </mask>
  <g mask="url(#mask0_1948_23174)">
    <rect width="24" height="24" fill="#fillColor" />
  </g>
</svg>
