<svg width="48" height="48" viewBox="0 0 48 48" fill="none" xmlns="http://www.w3.org/2000/svg">
<rect width="48" height="48" rx="10" fill="white" fill-opacity="0.2"/>
<path fill-rule="evenodd" clip-rule="evenodd" d="M18.7692 34.6671C28.4306 34.6671 34.0199 27.1657 34.0199 20.0471C34.0199 19.8511 35.3932 18.6724 35.9812 16.2151C36.1012 15.7164 35.6159 15.3231 35.1586 15.5324C33.9852 16.0711 32.7946 15.6444 32.2772 15.0311C30.2879 12.8617 26.9612 12.7577 24.8452 14.7977C23.4812 16.1137 22.9026 18.0737 23.3252 19.9444C18.8572 20.2631 15.7892 18.1457 13.2666 15.2431C12.9412 14.8657 12.3372 15.0644 12.2692 15.5631C11.8959 18.3391 11.7786 25.0884 18.4666 28.9644C17.3052 30.6337 15.0319 31.6191 12.5012 32.0417C11.9412 32.1364 11.8079 32.9124 12.3199 33.1631C14.3252 34.1497 16.5292 34.6657 18.7692 34.6631" fill="#03133D"/>
<mask id="mask0_2688_35335" style="mask-type:luminance" maskUnits="userSpaceOnUse" x="12" y="13" width="24" height="22">
<path fill-rule="evenodd" clip-rule="evenodd" d="M18.7692 34.6671C28.4306 34.6671 34.0199 27.1657 34.0199 20.0471C34.0199 19.8511 35.3932 18.6724 35.9812 16.2151C36.1012 15.7164 35.6159 15.3231 35.1586 15.5324C33.9852 16.0711 32.7946 15.6444 32.2772 15.0311C30.2879 12.8617 26.9612 12.7577 24.8452 14.7977C23.4812 16.1137 22.9026 18.0737 23.3252 19.9444C18.8572 20.2631 15.7892 18.1457 13.2666 15.2431C12.9412 14.8657 12.3372 15.0644 12.2692 15.5631C11.8959 18.3391 11.7786 25.0884 18.4666 28.9644C17.3052 30.6337 15.0319 31.6191 12.5012 32.0417C11.9412 32.1364 11.8079 32.9124 12.3199 33.1631C14.3252 34.1497 16.5292 34.6657 18.7692 34.6631" fill="white"/>
</mask>
<g mask="url(#mask0_2688_35335)">
<rect x="8" y="8" width="32" height="32" fill="white"/>
</g>
</svg>
