<svg width="48" height="48" viewBox="0 0 48 48" fill="none" xmlns="http://www.w3.org/2000/svg">
<rect width="48" height="48" rx="10" fill="white" fill-opacity="0.2"/>
<path fill-rule="evenodd" clip-rule="evenodd" d="M27.4896 34.0693C28.8883 32.072 30.3429 29.1346 30.6336 25.3333H34.5736C34.0629 29.4026 31.2549 32.76 27.4896 34.0693ZM13.4258 25.3333H17.4151C17.6898 29.1493 19.1258 32.0746 20.5431 34.0813C16.7604 32.7786 13.9391 29.4146 13.4258 25.3333ZM20.5844 13.9052C19.1818 15.9026 17.7138 18.8492 17.4204 22.6666H13.4258C13.9404 18.5706 16.7818 15.1959 20.5844 13.9052ZM20.1058 22.6666C20.5138 18.3039 22.7458 15.2666 24.0351 13.8626C25.3685 15.2906 27.5658 18.2999 27.9458 22.6666H20.1058ZM20.1071 25.3333H27.9498C27.5418 29.7026 25.3044 32.74 24.0164 34.144C22.6204 32.664 20.4791 29.696 20.1071 25.3333ZM34.5735 22.6667H30.6375C30.3642 18.868 28.9442 15.952 27.5335 13.948C31.2775 15.268 34.0655 18.6134 34.5735 22.6667ZM37.3337 24C37.3337 16.6613 31.3723 10.6906 24.0377 10.6693C24.0323 10.6693 24.027 10.668 24.0203 10.668C24.015 10.668 24.007 10.6666 24.0003 10.6666C16.6483 10.6666 10.667 16.6493 10.667 24C10.667 31.352 16.6483 37.3333 24.0003 37.3333C24.0083 37.3333 24.015 37.332 24.0203 37.332C24.023 37.332 24.0243 37.3333 24.027 37.3333C24.031 37.3333 24.035 37.3306 24.0377 37.3306C31.3723 37.3106 37.3337 31.3386 37.3337 24Z" fill="#03133D"/>
<mask id="mask0_2688_35331" style="mask-type:luminance" maskUnits="userSpaceOnUse" x="10" y="10" width="28" height="28">
<path fill-rule="evenodd" clip-rule="evenodd" d="M27.4896 34.0693C28.8883 32.072 30.3429 29.1346 30.6336 25.3333H34.5736C34.0629 29.4026 31.2549 32.76 27.4896 34.0693ZM13.4258 25.3333H17.4151C17.6898 29.1493 19.1258 32.0746 20.5431 34.0813C16.7604 32.7786 13.9391 29.4146 13.4258 25.3333ZM20.5844 13.9052C19.1818 15.9026 17.7138 18.8492 17.4204 22.6666H13.4258C13.9404 18.5706 16.7818 15.1959 20.5844 13.9052ZM20.1058 22.6666C20.5138 18.3039 22.7458 15.2666 24.0351 13.8626C25.3685 15.2906 27.5658 18.2999 27.9458 22.6666H20.1058ZM20.1071 25.3333H27.9498C27.5418 29.7026 25.3044 32.74 24.0164 34.144C22.6204 32.664 20.4791 29.696 20.1071 25.3333ZM34.5735 22.6667H30.6375C30.3642 18.868 28.9442 15.952 27.5335 13.948C31.2775 15.268 34.0655 18.6134 34.5735 22.6667ZM37.3337 24C37.3337 16.6613 31.3723 10.6906 24.0377 10.6693C24.0323 10.6693 24.027 10.668 24.0203 10.668C24.015 10.668 24.007 10.6666 24.0003 10.6666C16.6483 10.6666 10.667 16.6493 10.667 24C10.667 31.352 16.6483 37.3333 24.0003 37.3333C24.0083 37.3333 24.015 37.332 24.0203 37.332C24.023 37.332 24.0243 37.3333 24.027 37.3333C24.031 37.3333 24.035 37.3306 24.0377 37.3306C31.3723 37.3106 37.3337 31.3386 37.3337 24Z" fill="white"/>
</mask>
<g mask="url(#mask0_2688_35331)">
<rect x="8" y="8" width="32" height="32" fill="white"/>
</g>
</svg>
