<svg width="48" height="48" viewBox="0 0 48 48" fill="none" xmlns="http://www.w3.org/2000/svg">
<rect width="48" height="48" rx="10" fill="white" fill-opacity="0.2"/>
<path fill-rule="evenodd" clip-rule="evenodd" d="M11.9994 15C11.9994 13.344 13.3434 12 14.9994 12C16.6554 12 17.9994 13.344 17.9994 15C17.9994 16.656 16.6554 18 14.9994 18C13.3434 18 11.9994 16.656 11.9994 15ZM28.2001 19.2005C23.8921 19.2005 20.3988 22.6725 20.3988 26.9525V34.7992C20.3988 35.4619 20.9374 36.0005 21.6001 36.0005H24.3988C25.0614 36.0005 25.6001 35.4619 25.6001 34.7992V26.9525C25.6001 25.4379 26.9121 24.2272 28.4694 24.3832C29.8214 24.5179 30.7988 25.7539 30.7988 27.1125V34.7992C30.7988 35.4619 31.3374 36.0005 32.0001 36.0005H34.7988C35.4614 36.0005 36.0001 35.4619 36.0001 34.7992V26.9525C36.0001 22.6725 32.5068 19.2005 28.2001 19.2005ZM16.799 20.3997H13.2004C12.5377 20.3997 11.999 20.9371 11.999 21.5997V34.7997C11.999 35.4624 12.5377 35.9997 13.2004 35.9997H16.799C17.4617 35.9997 17.999 35.4624 17.999 34.7997V21.5997C17.999 20.9371 17.4617 20.3997 16.799 20.3997Z" fill="#03133D"/>
<mask id="mask0_2688_35339" style="mask-type:luminance" maskUnits="userSpaceOnUse" x="11" y="12" width="25" height="25">
<path fill-rule="evenodd" clip-rule="evenodd" d="M11.9994 15C11.9994 13.344 13.3434 12 14.9994 12C16.6554 12 17.9994 13.344 17.9994 15C17.9994 16.656 16.6554 18 14.9994 18C13.3434 18 11.9994 16.656 11.9994 15ZM28.2001 19.2005C23.8921 19.2005 20.3988 22.6725 20.3988 26.9525V34.7992C20.3988 35.4619 20.9374 36.0005 21.6001 36.0005H24.3988C25.0614 36.0005 25.6001 35.4619 25.6001 34.7992V26.9525C25.6001 25.4379 26.9121 24.2272 28.4694 24.3832C29.8214 24.5179 30.7988 25.7539 30.7988 27.1125V34.7992C30.7988 35.4619 31.3374 36.0005 32.0001 36.0005H34.7988C35.4614 36.0005 36.0001 35.4619 36.0001 34.7992V26.9525C36.0001 22.6725 32.5068 19.2005 28.2001 19.2005ZM16.799 20.3997H13.2004C12.5377 20.3997 11.999 20.9371 11.999 21.5997V34.7997C11.999 35.4624 12.5377 35.9997 13.2004 35.9997H16.799C17.4617 35.9997 17.999 35.4624 17.999 34.7997V21.5997C17.999 20.9371 17.4617 20.3997 16.799 20.3997Z" fill="white"/>
</mask>
<g mask="url(#mask0_2688_35339)">
<rect x="8" y="8" width="32" height="32" fill="white"/>
</g>
</svg>
