<svg width="48" height="48" viewBox="0 0 48 48" fill="none" xmlns="http://www.w3.org/2000/svg">
<rect width="48" height="48" rx="10" fill="white" fill-opacity="0.2"/>
<path fill-rule="evenodd" clip-rule="evenodd" d="M31.3272 26.6407C30.4392 29.4967 28.2259 31.474 25.2805 31.91C20.7859 32.5754 16.3725 29.1674 16.0232 24.634C15.6605 19.93 19.3712 16.0007 24.0019 16.0007C25.0725 16.0007 26.0939 16.2114 27.0272 16.5927C27.3512 16.7247 27.7179 16.6114 27.8832 16.3047L29.7965 12.7754C29.9779 12.438 29.8472 12.0034 29.4979 11.846C27.8219 11.0887 25.9632 10.6674 24.0059 10.6674C16.5099 10.6674 10.4579 16.8487 10.6725 24.3914C10.8685 31.2727 16.5485 37.03 23.4245 37.322C30.8192 37.634 36.9525 31.9274 37.3245 24.6967C37.3392 24.4327 37.3339 22.8954 37.3285 21.994C37.3272 21.626 37.0285 21.334 36.6619 21.334H24.6632C24.2952 21.334 23.9965 21.6314 23.9965 22.0007V25.974C23.9965 26.3407 24.2952 26.6407 24.6632 26.6407H31.3272Z" fill="#03133D"/>
<mask id="mask0_2688_35337" style="mask-type:luminance" maskUnits="userSpaceOnUse" x="10" y="10" width="28" height="28">
<path fill-rule="evenodd" clip-rule="evenodd" d="M31.3272 26.6407C30.4392 29.4967 28.2259 31.474 25.2805 31.91C20.7859 32.5754 16.3725 29.1674 16.0232 24.634C15.6605 19.93 19.3712 16.0007 24.0019 16.0007C25.0725 16.0007 26.0939 16.2114 27.0272 16.5927C27.3512 16.7247 27.7179 16.6114 27.8832 16.3047L29.7965 12.7754C29.9779 12.438 29.8472 12.0034 29.4979 11.846C27.8219 11.0887 25.9632 10.6674 24.0059 10.6674C16.5099 10.6674 10.4579 16.8487 10.6725 24.3914C10.8685 31.2727 16.5485 37.03 23.4245 37.322C30.8192 37.634 36.9525 31.9274 37.3245 24.6967C37.3392 24.4327 37.3339 22.8954 37.3285 21.994C37.3272 21.626 37.0285 21.334 36.6619 21.334H24.6632C24.2952 21.334 23.9965 21.6314 23.9965 22.0007V25.974C23.9965 26.3407 24.2952 26.6407 24.6632 26.6407H31.3272Z" fill="white"/>
</mask>
<g mask="url(#mask0_2688_35337)">
<rect x="8" y="8" width="32" height="32" fill="white"/>
</g>
</svg>
