<svg width="48" height="48" viewBox="0 0 48 48" fill="none" xmlns="http://www.w3.org/2000/svg">
<rect width="48" height="48" rx="10" fill="white" fill-opacity="0.2"/>
<path fill-rule="evenodd" clip-rule="evenodd" d="M30.6667 12.6667C30.6667 12.2987 30.3667 12 30 12H26.6667C22.984 12 20 14.6867 20 18V21.6H16.6667C16.2987 21.6 16 21.8987 16 22.2667V25.7333C16 26.1013 16.2987 26.4 16.6667 26.4H20V35.3333C20 35.7013 20.2987 36 20.6667 36H24.6667C25.0333 36 25.3333 35.7013 25.3333 35.3333V26.4H28.8253C29.1253 26.4 29.388 26.2 29.4693 25.912L30.4307 22.4453C30.5493 22.0213 30.2293 21.6 29.7893 21.6H25.3333V18C25.3333 17.3373 25.9293 16.8 26.6667 16.8H30C30.3667 16.8 30.6667 16.5013 30.6667 16.1333V12.6667Z" fill="#03133D"/>
<mask id="mask0_2688_35333" style="mask-type:luminance" maskUnits="userSpaceOnUse" x="16" y="12" width="15" height="24">
<path fill-rule="evenodd" clip-rule="evenodd" d="M30.6667 12.6667C30.6667 12.2987 30.3667 12 30 12H26.6667C22.984 12 20 14.6867 20 18V21.6H16.6667C16.2987 21.6 16 21.8987 16 22.2667V25.7333C16 26.1013 16.2987 26.4 16.6667 26.4H20V35.3333C20 35.7013 20.2987 36 20.6667 36H24.6667C25.0333 36 25.3333 35.7013 25.3333 35.3333V26.4H28.8253C29.1253 26.4 29.388 26.2 29.4693 25.912L30.4307 22.4453C30.5493 22.0213 30.2293 21.6 29.7893 21.6H25.3333V18C25.3333 17.3373 25.9293 16.8 26.6667 16.8H30C30.3667 16.8 30.6667 16.5013 30.6667 16.1333V12.6667Z" fill="white"/>
</mask>
<g mask="url(#mask0_2688_35333)">
<rect x="8" y="8" width="32" height="32" fill="white"/>
</g>
</svg>
