<svg
  width="16"
  height="14"
  viewBox="0 0 16 14"
  fill="fillColor"
  xmlns="http://www.w3.org/2000/svg"
  preserveAspectRatio="none"
>
  <path
    fillRule="evenodd"
    clipRule="evenodd"
    d="M1.35547 8H13.2205L9.58747 12.36C9.23347 12.784 9.29147 13.415 9.71547 13.768C10.1405 14.122 10.7705 14.064 11.1245 13.64L16.1245 7.64C16.1635 7.593 16.1825 7.538 16.2115 7.486C16.2355 7.444 16.2645 7.408 16.2825 7.362C16.3275 7.247 16.3545 7.126 16.3545 7.004C16.3545 7.003 16.3555 7.001 16.3555 7C16.3555 6.999 16.3545 6.997 16.3545 6.996C16.3545 6.874 16.3275 6.753 16.2825 6.638C16.2645 6.592 16.2355 6.556 16.2115 6.514C16.1825 6.462 16.1635 6.407 16.1245 6.36L11.1245 0.36C10.9255 0.123 10.6415 0 10.3555 0C10.1295 0 9.90247 0.076 9.71547 0.232C9.29147 0.585 9.23347 1.216 9.58747 1.64L13.2205 6H1.35547C0.803469 6 0.355469 6.448 0.355469 7C0.355469 7.552 0.803469 8 1.35547 8Z"
    fill="#ffffff"
  ></path>
</svg>
