<svg width="32" height="32" viewBox="0 0 32 32" fill="none" xmlns="http://www.w3.org/2000/svg">
<path fillRule="evenodd" clipRule="evenodd" d="M23.6806 20.7201L16.0006 25.1294L8.32064 20.7201L10.5793 19.7587L15.3366 22.4894C15.542 22.6081 15.7713 22.6667 16.0006 22.6667C16.23 22.6667 16.458 22.6081 16.6646 22.4894L21.422 19.7574L23.6806 20.7201ZM15.3366 17.1561C15.542 17.2747 15.7713 17.3334 16.0006 17.3334C16.23 17.3334 16.458 17.2747 16.6646 17.1561L21.422 14.4241L23.6806 15.3867L16.0006 19.7961L8.32064 15.3867L10.5793 14.4241L15.3366 17.1561ZM16.0006 6.7828L23.6806 10.0535L16.0006 14.4628L8.32064 10.0535L16.0006 6.7828ZM27.9981 15.1308C27.9674 14.6254 27.6541 14.1814 27.1888 13.9828L24.3194 12.7614L27.3314 11.0321C27.7701 10.7814 28.0274 10.3028 27.9981 9.79742C27.9674 9.29342 27.6541 8.84809 27.1888 8.64942L16.5221 4.10676C16.1888 3.96409 15.8114 3.96409 15.4781 4.10676L4.81143 8.64942C4.3461 8.84809 4.03276 9.29342 4.00343 9.79742C3.97276 10.3028 4.23143 10.7814 4.6701 11.0321L7.68076 12.7614L4.81143 13.9828C4.3461 14.1814 4.03276 14.6254 4.00343 15.1308C3.97276 15.6361 4.23143 16.1148 4.6701 16.3654L7.68076 18.0948L4.81143 19.3161C4.3461 19.5148 4.03276 19.9588 4.00343 20.4641C3.97276 20.9694 4.23143 21.4481 4.6701 21.6988L15.3368 27.8228C15.5421 27.9414 15.7714 28.0001 16.0008 28.0001C16.2301 28.0001 16.4581 27.9414 16.6648 27.8228L27.3314 21.6988C27.7701 21.4481 28.0274 20.9694 27.9981 20.4641C27.9674 19.9601 27.6541 19.5148 27.1901 19.3161L24.3208 18.0934L27.3314 16.3654C27.7701 16.1148 28.0274 15.6361 27.9981 15.1308V15.1308Z" fill="#006FBA"/>
<mask id="mask0_1452_23834" style="mask-type:luminance" maskUnits="userSpaceOnUse" x="4" y="3" width="24" height="25">
<path fillRule="evenodd" clipRule="evenodd" d="M23.6806 20.7201L16.0006 25.1294L8.32064 20.7201L10.5793 19.7587L15.3366 22.4894C15.542 22.6081 15.7713 22.6667 16.0006 22.6667C16.23 22.6667 16.458 22.6081 16.6646 22.4894L21.422 19.7574L23.6806 20.7201ZM15.3366 17.1561C15.542 17.2747 15.7713 17.3334 16.0006 17.3334C16.23 17.3334 16.458 17.2747 16.6646 17.1561L21.422 14.4241L23.6806 15.3867L16.0006 19.7961L8.32064 15.3867L10.5793 14.4241L15.3366 17.1561ZM16.0006 6.7828L23.6806 10.0535L16.0006 14.4628L8.32064 10.0535L16.0006 6.7828ZM27.9981 15.1308C27.9674 14.6254 27.6541 14.1814 27.1888 13.9828L24.3194 12.7614L27.3314 11.0321C27.7701 10.7814 28.0274 10.3028 27.9981 9.79742C27.9674 9.29342 27.6541 8.84809 27.1888 8.64942L16.5221 4.10676C16.1888 3.96409 15.8114 3.96409 15.4781 4.10676L4.81143 8.64942C4.3461 8.84809 4.03276 9.29342 4.00343 9.79742C3.97276 10.3028 4.23143 10.7814 4.6701 11.0321L7.68076 12.7614L4.81143 13.9828C4.3461 14.1814 4.03276 14.6254 4.00343 15.1308C3.97276 15.6361 4.23143 16.1148 4.6701 16.3654L7.68076 18.0948L4.81143 19.3161C4.3461 19.5148 4.03276 19.9588 4.00343 20.4641C3.97276 20.9694 4.23143 21.4481 4.6701 21.6988L15.3368 27.8228C15.5421 27.9414 15.7714 28.0001 16.0008 28.0001C16.2301 28.0001 16.4581 27.9414 16.6648 27.8228L27.3314 21.6988C27.7701 21.4481 28.0274 20.9694 27.9981 20.4641C27.9674 19.9601 27.6541 19.5148 27.1901 19.3161L24.3208 18.0934L27.3314 16.3654C27.7701 16.1148 28.0274 15.6361 27.9981 15.1308V15.1308Z" fill="white"/>
</mask>
<g mask="url(#mask0_1452_23834)">
<rect width="32" height="32" fill="white"/>
</g>
</svg>
