<svg width="509" height="406" viewBox="0 0 509 406" fill="none" xmlns="http://www.w3.org/2000/svg">
<rect y="124" width="509" height="282" rx="10" fill="white"/>
<path d="M76.129 310.5C59.148 316.72 30 302 30 302V378H485V199.197C465.901 192.535 440.119 141.891 428.566 161.474C393.295 221.262 351.281 156.029 312.171 174.998C272.267 194.351 262.829 228.811 219.877 230.87C199.989 231.824 202.939 292.694 183.065 294C162.771 295.333 144.153 243.851 124.939 251.867C104.398 260.437 96.9244 302.883 76.129 310.5Z" fill="url(#paint0_linear_3275_15280)"/>
<line x1="24.5" y1="155" x2="24.5" y2="361" stroke="#E6E8EC"/>
<line x1="485" y1="361.5" x2="24" y2="361.5" stroke="#E6E8EC"/>
<path d="M27 301.543C27 301.543 56.5243 315.524 73.5426 309.487C94.3837 302.095 101.561 258.394 122.147 250.077C141.404 242.296 160.135 294.547 180.473 293.253C200.391 291.986 197.362 230.623 217.295 229.698C260.341 227.699 269.8 194.252 309.791 175.468C348.987 157.057 391.093 220.372 426.442 162.343C438.02 143.336 463.859 192.49 483 198.956" stroke="#006EEA" stroke-width="4" stroke-linecap="round" stroke-linejoin="round"/>
<line x1="458.5" y1="356.5" x2="458.5" y2="365.5" stroke="#E6E8EC" stroke-linecap="round" stroke-linejoin="round"/>
<line x1="354.5" y1="356.5" x2="354.5" y2="365.5" stroke="#E6E8EC" stroke-linecap="round" stroke-linejoin="round"/>
<line x1="157.5" y1="356.5" x2="157.5" y2="365.5" stroke="#E6E8EC" stroke-linecap="round" stroke-linejoin="round"/>
<line x1="50.5" y1="356.5" x2="50.5" y2="365.5" stroke="#E6E8EC" stroke-linecap="round" stroke-linejoin="round"/>
<path d="M252 366L252 222" stroke="#E6E8EC"/>
<circle cx="252.279" cy="220.279" r="5.27909" fill="white" stroke="#0097FE" stroke-width="2.11163"/>
<circle cx="252" cy="360.474" r="3" fill="white" stroke="#0097FE" stroke-width="2.11163"/>
<path d="M26.2101 386V378.728L24.8541 379.028V378.332L26.5461 377.6H27.2301V386H26.2101ZM32.2792 386.144C31.5352 386.144 30.8912 385.964 30.3472 385.604C29.8112 385.236 29.3992 384.728 29.1112 384.08C28.8232 383.424 28.6792 382.664 28.6792 381.8C28.6792 380.936 28.8232 380.18 29.1112 379.532C29.3992 378.876 29.8112 378.368 30.3472 378.008C30.8912 377.64 31.5352 377.456 32.2792 377.456C33.0232 377.456 33.6632 377.64 34.1992 378.008C34.7352 378.368 35.1472 378.876 35.4352 379.532C35.7232 380.18 35.8672 380.936 35.8672 381.8C35.8672 382.664 35.7232 383.424 35.4352 384.08C35.1472 384.728 34.7352 385.236 34.1992 385.604C33.6632 385.964 33.0232 386.144 32.2792 386.144ZM32.2792 385.256C32.7672 385.256 33.2032 385.12 33.5872 384.848C33.9792 384.568 34.2832 384.172 34.4992 383.66C34.7232 383.14 34.8352 382.52 34.8352 381.8C34.8352 381.08 34.7232 380.464 34.4992 379.952C34.2832 379.44 33.9792 379.048 33.5872 378.776C33.2032 378.496 32.7672 378.356 32.2792 378.356C31.7832 378.356 31.3432 378.496 30.9592 378.776C30.5752 379.048 30.2712 379.44 30.0472 379.952C29.8232 380.464 29.7112 381.08 29.7112 381.8C29.7112 382.52 29.8232 383.14 30.0472 383.66C30.2712 384.172 30.5752 384.568 30.9592 384.848C31.3432 385.12 31.7832 385.256 32.2792 385.256ZM37.6115 386.06C37.4115 386.06 37.2435 385.996 37.1075 385.868C36.9795 385.732 36.9155 385.568 36.9155 385.376C36.9155 385.184 36.9795 385.024 37.1075 384.896C37.2435 384.76 37.4115 384.692 37.6115 384.692C37.8035 384.692 37.9635 384.76 38.0915 384.896C38.2275 385.024 38.2955 385.184 38.2955 385.376C38.2955 385.568 38.2275 385.732 38.0915 385.868C37.9635 385.996 37.8035 386.06 37.6115 386.06ZM37.6115 381.272C37.4115 381.272 37.2435 381.208 37.1075 381.08C36.9795 380.944 36.9155 380.78 36.9155 380.588C36.9155 380.396 36.9795 380.236 37.1075 380.108C37.2435 379.972 37.4115 379.904 37.6115 379.904C37.8035 379.904 37.9635 379.972 38.0915 380.108C38.2275 380.236 38.2955 380.396 38.2955 380.588C38.2955 380.78 38.2275 380.944 38.0915 381.08C37.9635 381.208 37.8035 381.272 37.6115 381.272ZM42.3302 386.144C41.7942 386.144 41.3102 386.048 40.8782 385.856C40.4462 385.656 40.0982 385.36 39.8342 384.968C39.5782 384.576 39.4422 384.088 39.4262 383.504H40.4462C40.4542 383.984 40.6222 384.4 40.9502 384.752C41.2782 385.096 41.7382 385.268 42.3302 385.268C42.9222 385.268 43.3662 385.104 43.6622 384.776C43.9662 384.448 44.1182 384.052 44.1182 383.588C44.1182 383.196 44.0222 382.876 43.8302 382.628C43.6462 382.38 43.3942 382.196 43.0742 382.076C42.7622 381.956 42.4182 381.896 42.0422 381.896H41.4182V381.044H42.0422C42.5862 381.044 43.0102 380.92 43.3142 380.672C43.6262 380.424 43.7822 380.076 43.7822 379.628C43.7822 379.252 43.6582 378.944 43.4102 378.704C43.1702 378.456 42.8102 378.332 42.3302 378.332C41.8662 378.332 41.4942 378.472 41.2142 378.752C40.9342 379.024 40.7782 379.368 40.7462 379.784H39.7262C39.7502 379.328 39.8702 378.924 40.0862 378.572C40.3102 378.22 40.6142 377.948 40.9982 377.756C41.3822 377.556 41.8262 377.456 42.3302 377.456C42.8742 377.456 43.3262 377.552 43.6862 377.744C44.0542 377.936 44.3302 378.192 44.5142 378.512C44.7062 378.832 44.8022 379.184 44.8022 379.568C44.8022 379.992 44.6862 380.38 44.4542 380.732C44.2222 381.076 43.8742 381.308 43.4102 381.428C43.9062 381.532 44.3182 381.768 44.6462 382.136C44.9742 382.504 45.1382 382.988 45.1382 383.588C45.1382 384.052 45.0302 384.48 44.8142 384.872C44.6062 385.256 44.2942 385.564 43.8782 385.796C43.4622 386.028 42.9462 386.144 42.3302 386.144ZM50.0449 386.144C49.3009 386.144 48.6569 385.964 48.1129 385.604C47.5769 385.236 47.1649 384.728 46.8769 384.08C46.5889 383.424 46.4449 382.664 46.4449 381.8C46.4449 380.936 46.5889 380.18 46.8769 379.532C47.1649 378.876 47.5769 378.368 48.1129 378.008C48.6569 377.64 49.3009 377.456 50.0449 377.456C50.7889 377.456 51.4289 377.64 51.9649 378.008C52.5009 378.368 52.9129 378.876 53.2009 379.532C53.4889 380.18 53.6329 380.936 53.6329 381.8C53.6329 382.664 53.4889 383.424 53.2009 384.08C52.9129 384.728 52.5009 385.236 51.9649 385.604C51.4289 385.964 50.7889 386.144 50.0449 386.144ZM50.0449 385.256C50.5329 385.256 50.9689 385.12 51.3529 384.848C51.7449 384.568 52.0489 384.172 52.2649 383.66C52.4889 383.14 52.6009 382.52 52.6009 381.8C52.6009 381.08 52.4889 380.464 52.2649 379.952C52.0489 379.44 51.7449 379.048 51.3529 378.776C50.9689 378.496 50.5329 378.356 50.0449 378.356C49.5489 378.356 49.1089 378.496 48.7249 378.776C48.3409 379.048 48.0369 379.44 47.8129 379.952C47.5889 380.464 47.4769 381.08 47.4769 381.8C47.4769 382.52 47.5889 383.14 47.8129 383.66C48.0369 384.172 48.3409 384.568 48.7249 384.848C49.1089 385.12 49.5489 385.256 50.0449 385.256ZM57.737 386L60.833 377.6H61.901L64.985 386H63.917L63.149 383.84H59.573L58.793 386H57.737ZM59.873 383.024H62.849L61.361 378.872L59.873 383.024ZM66.2337 386V377.6H67.4097L70.4337 383.456L73.4337 377.6H74.6217V386H73.6137V379.4L70.8057 384.8H70.0497L67.2417 379.412V386H66.2337Z" fill="#68718B"/>
<path d="M435.603 386.144C434.859 386.144 434.215 385.964 433.671 385.604C433.135 385.236 432.723 384.728 432.435 384.08C432.147 383.424 432.003 382.664 432.003 381.8C432.003 380.936 432.147 380.18 432.435 379.532C432.723 378.876 433.135 378.368 433.671 378.008C434.215 377.64 434.859 377.456 435.603 377.456C436.347 377.456 436.987 377.64 437.523 378.008C438.059 378.368 438.471 378.876 438.759 379.532C439.047 380.18 439.191 380.936 439.191 381.8C439.191 382.664 439.047 383.424 438.759 384.08C438.471 384.728 438.059 385.236 437.523 385.604C436.987 385.964 436.347 386.144 435.603 386.144ZM435.603 385.256C436.091 385.256 436.527 385.12 436.911 384.848C437.303 384.568 437.607 384.172 437.823 383.66C438.047 383.14 438.159 382.52 438.159 381.8C438.159 381.08 438.047 380.464 437.823 379.952C437.607 379.44 437.303 379.048 436.911 378.776C436.527 378.496 436.091 378.356 435.603 378.356C435.107 378.356 434.667 378.496 434.283 378.776C433.899 379.048 433.595 379.44 433.371 379.952C433.147 380.464 433.035 381.08 433.035 381.8C433.035 382.52 433.147 383.14 433.371 383.66C433.595 384.172 433.899 384.568 434.283 384.848C434.667 385.12 435.107 385.256 435.603 385.256ZM440.399 386V385.292C440.967 384.844 441.503 384.392 442.007 383.936C442.519 383.472 442.971 383.016 443.363 382.568C443.763 382.12 444.075 381.68 444.299 381.248C444.531 380.816 444.647 380.4 444.647 380C444.647 379.704 444.595 379.428 444.491 379.172C444.395 378.916 444.235 378.712 444.011 378.56C443.787 378.4 443.483 378.32 443.099 378.32C442.731 378.32 442.423 378.404 442.175 378.572C441.927 378.732 441.739 378.948 441.611 379.22C441.491 379.492 441.431 379.784 441.431 380.096H440.459C440.459 379.544 440.575 379.072 440.807 378.68C441.039 378.28 441.355 377.976 441.755 377.768C442.155 377.56 442.607 377.456 443.111 377.456C443.855 377.456 444.463 377.668 444.935 378.092C445.415 378.508 445.655 379.132 445.655 379.964C445.655 380.46 445.531 380.952 445.283 381.44C445.035 381.92 444.719 382.388 444.335 382.844C443.951 383.292 443.539 383.712 443.099 384.104C442.667 384.496 442.263 384.848 441.887 385.16H445.943V386H440.399ZM447.686 386.06C447.486 386.06 447.318 385.996 447.182 385.868C447.054 385.732 446.99 385.568 446.99 385.376C446.99 385.184 447.054 385.024 447.182 384.896C447.318 384.76 447.486 384.692 447.686 384.692C447.878 384.692 448.038 384.76 448.166 384.896C448.302 385.024 448.37 385.184 448.37 385.376C448.37 385.568 448.302 385.732 448.166 385.868C448.038 385.996 447.878 386.06 447.686 386.06ZM447.686 381.272C447.486 381.272 447.318 381.208 447.182 381.08C447.054 380.944 446.99 380.78 446.99 380.588C446.99 380.396 447.054 380.236 447.182 380.108C447.318 379.972 447.486 379.904 447.686 379.904C447.878 379.904 448.038 379.972 448.166 380.108C448.302 380.236 448.37 380.396 448.37 380.588C448.37 380.78 448.302 380.944 448.166 381.08C448.038 381.208 447.878 381.272 447.686 381.272ZM452.404 386.144C451.868 386.144 451.384 386.048 450.952 385.856C450.52 385.656 450.172 385.36 449.908 384.968C449.652 384.576 449.516 384.088 449.5 383.504H450.52C450.528 383.984 450.696 384.4 451.024 384.752C451.352 385.096 451.812 385.268 452.404 385.268C452.996 385.268 453.44 385.104 453.736 384.776C454.04 384.448 454.192 384.052 454.192 383.588C454.192 383.196 454.096 382.876 453.904 382.628C453.72 382.38 453.468 382.196 453.148 382.076C452.836 381.956 452.492 381.896 452.116 381.896H451.492V381.044H452.116C452.66 381.044 453.084 380.92 453.388 380.672C453.7 380.424 453.856 380.076 453.856 379.628C453.856 379.252 453.732 378.944 453.484 378.704C453.244 378.456 452.884 378.332 452.404 378.332C451.94 378.332 451.568 378.472 451.288 378.752C451.008 379.024 450.852 379.368 450.82 379.784H449.8C449.824 379.328 449.944 378.924 450.16 378.572C450.384 378.22 450.688 377.948 451.072 377.756C451.456 377.556 451.9 377.456 452.404 377.456C452.948 377.456 453.4 377.552 453.76 377.744C454.128 377.936 454.404 378.192 454.588 378.512C454.78 378.832 454.876 379.184 454.876 379.568C454.876 379.992 454.76 380.38 454.528 380.732C454.296 381.076 453.948 381.308 453.484 381.428C453.98 381.532 454.392 381.768 454.72 382.136C455.048 382.504 455.212 382.988 455.212 383.588C455.212 384.052 455.104 384.48 454.888 384.872C454.68 385.256 454.368 385.564 453.952 385.796C453.536 386.028 453.02 386.144 452.404 386.144ZM460.119 386.144C459.375 386.144 458.731 385.964 458.187 385.604C457.651 385.236 457.239 384.728 456.951 384.08C456.663 383.424 456.519 382.664 456.519 381.8C456.519 380.936 456.663 380.18 456.951 379.532C457.239 378.876 457.651 378.368 458.187 378.008C458.731 377.64 459.375 377.456 460.119 377.456C460.863 377.456 461.503 377.64 462.039 378.008C462.575 378.368 462.987 378.876 463.275 379.532C463.563 380.18 463.707 380.936 463.707 381.8C463.707 382.664 463.563 383.424 463.275 384.08C462.987 384.728 462.575 385.236 462.039 385.604C461.503 385.964 460.863 386.144 460.119 386.144ZM460.119 385.256C460.607 385.256 461.043 385.12 461.427 384.848C461.819 384.568 462.123 384.172 462.339 383.66C462.563 383.14 462.675 382.52 462.675 381.8C462.675 381.08 462.563 380.464 462.339 379.952C462.123 379.44 461.819 379.048 461.427 378.776C461.043 378.496 460.607 378.356 460.119 378.356C459.623 378.356 459.183 378.496 458.799 378.776C458.415 379.048 458.111 379.44 457.887 379.952C457.663 380.464 457.551 381.08 457.551 381.8C457.551 382.52 457.663 383.14 457.887 383.66C458.111 384.172 458.415 384.568 458.799 384.848C459.183 385.12 459.623 385.256 460.119 385.256ZM468.339 386V377.6H471.099C471.755 377.6 472.295 377.708 472.719 377.924C473.143 378.14 473.455 378.432 473.655 378.8C473.863 379.168 473.967 379.584 473.967 380.048C473.967 380.504 473.867 380.916 473.667 381.284C473.467 381.652 473.155 381.948 472.731 382.172C472.307 382.388 471.763 382.496 471.099 382.496H469.347V386H468.339ZM469.347 381.644H471.075C471.747 381.644 472.223 381.504 472.503 381.224C472.791 380.936 472.935 380.544 472.935 380.048C472.935 379.544 472.791 379.152 472.503 378.872C472.223 378.584 471.747 378.44 471.075 378.44H469.347V381.644ZM475.288 386V377.6H476.464L479.488 383.456L482.488 377.6H483.676V386H482.668V379.4L479.86 384.8H479.104L476.296 379.412V386H475.288Z" fill="#68718B"/>
<path d="M333.168 386.144C332.424 386.144 331.78 385.964 331.236 385.604C330.7 385.236 330.288 384.728 330 384.08C329.712 383.424 329.568 382.664 329.568 381.8C329.568 380.936 329.712 380.18 330 379.532C330.288 378.876 330.7 378.368 331.236 378.008C331.78 377.64 332.424 377.456 333.168 377.456C333.912 377.456 334.552 377.64 335.088 378.008C335.624 378.368 336.036 378.876 336.324 379.532C336.612 380.18 336.756 380.936 336.756 381.8C336.756 382.664 336.612 383.424 336.324 384.08C336.036 384.728 335.624 385.236 335.088 385.604C334.552 385.964 333.912 386.144 333.168 386.144ZM333.168 385.256C333.656 385.256 334.092 385.12 334.476 384.848C334.868 384.568 335.172 384.172 335.388 383.66C335.612 383.14 335.724 382.52 335.724 381.8C335.724 381.08 335.612 380.464 335.388 379.952C335.172 379.44 334.868 379.048 334.476 378.776C334.092 378.496 333.656 378.356 333.168 378.356C332.672 378.356 332.232 378.496 331.848 378.776C331.464 379.048 331.16 379.44 330.936 379.952C330.712 380.464 330.6 381.08 330.6 381.8C330.6 382.52 330.712 383.14 330.936 383.66C331.16 384.172 331.464 384.568 331.848 384.848C332.232 385.12 332.672 385.256 333.168 385.256ZM339.04 386V378.728L337.684 379.028V378.332L339.376 377.6H340.06V386H339.04ZM342.121 386.06C341.921 386.06 341.753 385.996 341.617 385.868C341.489 385.732 341.425 385.568 341.425 385.376C341.425 385.184 341.489 385.024 341.617 384.896C341.753 384.76 341.921 384.692 342.121 384.692C342.313 384.692 342.473 384.76 342.601 384.896C342.737 385.024 342.805 385.184 342.805 385.376C342.805 385.568 342.737 385.732 342.601 385.868C342.473 385.996 342.313 386.06 342.121 386.06ZM342.121 381.272C341.921 381.272 341.753 381.208 341.617 381.08C341.489 380.944 341.425 380.78 341.425 380.588C341.425 380.396 341.489 380.236 341.617 380.108C341.753 379.972 341.921 379.904 342.121 379.904C342.313 379.904 342.473 379.972 342.601 380.108C342.737 380.236 342.805 380.396 342.805 380.588C342.805 380.78 342.737 380.944 342.601 381.08C342.473 381.208 342.313 381.272 342.121 381.272ZM346.84 386.144C346.304 386.144 345.82 386.048 345.388 385.856C344.956 385.656 344.608 385.36 344.344 384.968C344.088 384.576 343.952 384.088 343.936 383.504H344.956C344.964 383.984 345.132 384.4 345.46 384.752C345.788 385.096 346.248 385.268 346.84 385.268C347.432 385.268 347.876 385.104 348.172 384.776C348.476 384.448 348.628 384.052 348.628 383.588C348.628 383.196 348.532 382.876 348.34 382.628C348.156 382.38 347.904 382.196 347.584 382.076C347.272 381.956 346.928 381.896 346.552 381.896H345.928V381.044H346.552C347.096 381.044 347.52 380.92 347.824 380.672C348.136 380.424 348.292 380.076 348.292 379.628C348.292 379.252 348.168 378.944 347.92 378.704C347.68 378.456 347.32 378.332 346.84 378.332C346.376 378.332 346.004 378.472 345.724 378.752C345.444 379.024 345.288 379.368 345.256 379.784H344.236C344.26 379.328 344.38 378.924 344.596 378.572C344.82 378.22 345.124 377.948 345.508 377.756C345.892 377.556 346.336 377.456 346.84 377.456C347.384 377.456 347.836 377.552 348.196 377.744C348.564 377.936 348.84 378.192 349.024 378.512C349.216 378.832 349.312 379.184 349.312 379.568C349.312 379.992 349.196 380.38 348.964 380.732C348.732 381.076 348.384 381.308 347.92 381.428C348.416 381.532 348.828 381.768 349.156 382.136C349.484 382.504 349.648 382.988 349.648 383.588C349.648 384.052 349.54 384.48 349.324 384.872C349.116 385.256 348.804 385.564 348.388 385.796C347.972 386.028 347.456 386.144 346.84 386.144ZM354.555 386.144C353.811 386.144 353.167 385.964 352.623 385.604C352.087 385.236 351.675 384.728 351.387 384.08C351.099 383.424 350.955 382.664 350.955 381.8C350.955 380.936 351.099 380.18 351.387 379.532C351.675 378.876 352.087 378.368 352.623 378.008C353.167 377.64 353.811 377.456 354.555 377.456C355.299 377.456 355.939 377.64 356.475 378.008C357.011 378.368 357.423 378.876 357.711 379.532C357.999 380.18 358.143 380.936 358.143 381.8C358.143 382.664 357.999 383.424 357.711 384.08C357.423 384.728 357.011 385.236 356.475 385.604C355.939 385.964 355.299 386.144 354.555 386.144ZM354.555 385.256C355.043 385.256 355.479 385.12 355.863 384.848C356.255 384.568 356.559 384.172 356.775 383.66C356.999 383.14 357.111 382.52 357.111 381.8C357.111 381.08 356.999 380.464 356.775 379.952C356.559 379.44 356.255 379.048 355.863 378.776C355.479 378.496 355.043 378.356 354.555 378.356C354.059 378.356 353.619 378.496 353.235 378.776C352.851 379.048 352.547 379.44 352.323 379.952C352.099 380.464 351.987 381.08 351.987 381.8C351.987 382.52 352.099 383.14 352.323 383.66C352.547 384.172 352.851 384.568 353.235 384.848C353.619 385.12 354.059 385.256 354.555 385.256ZM362.775 386V377.6H365.535C366.191 377.6 366.731 377.708 367.155 377.924C367.579 378.14 367.891 378.432 368.091 378.8C368.299 379.168 368.403 379.584 368.403 380.048C368.403 380.504 368.303 380.916 368.103 381.284C367.903 381.652 367.591 381.948 367.167 382.172C366.743 382.388 366.199 382.496 365.535 382.496H363.783V386H362.775ZM363.783 381.644H365.511C366.183 381.644 366.659 381.504 366.939 381.224C367.227 380.936 367.371 380.544 367.371 380.048C367.371 379.544 367.227 379.152 366.939 378.872C366.659 378.584 366.183 378.44 365.511 378.44H363.783V381.644ZM369.724 386V377.6H370.9L373.924 383.456L376.924 377.6H378.112V386H377.104V379.4L374.296 384.8H373.54L370.732 379.412V386H369.724Z" fill="#68718B"/>
<path d="M228.937 386V378.728L227.581 379.028V378.332L229.273 377.6H229.957V386H228.937ZM231.598 386V385.292C232.166 384.844 232.702 384.392 233.206 383.936C233.718 383.472 234.17 383.016 234.562 382.568C234.962 382.12 235.274 381.68 235.498 381.248C235.73 380.816 235.846 380.4 235.846 380C235.846 379.704 235.794 379.428 235.69 379.172C235.594 378.916 235.434 378.712 235.21 378.56C234.986 378.4 234.682 378.32 234.298 378.32C233.93 378.32 233.622 378.404 233.374 378.572C233.126 378.732 232.938 378.948 232.81 379.22C232.69 379.492 232.63 379.784 232.63 380.096H231.658C231.658 379.544 231.774 379.072 232.006 378.68C232.238 378.28 232.554 377.976 232.954 377.768C233.354 377.56 233.806 377.456 234.31 377.456C235.054 377.456 235.662 377.668 236.134 378.092C236.614 378.508 236.854 379.132 236.854 379.964C236.854 380.46 236.73 380.952 236.482 381.44C236.234 381.92 235.918 382.388 235.534 382.844C235.15 383.292 234.738 383.712 234.298 384.104C233.866 384.496 233.462 384.848 233.086 385.16H237.142V386H231.598ZM238.885 386.06C238.685 386.06 238.517 385.996 238.381 385.868C238.253 385.732 238.189 385.568 238.189 385.376C238.189 385.184 238.253 385.024 238.381 384.896C238.517 384.76 238.685 384.692 238.885 384.692C239.077 384.692 239.237 384.76 239.365 384.896C239.501 385.024 239.569 385.184 239.569 385.376C239.569 385.568 239.501 385.732 239.365 385.868C239.237 385.996 239.077 386.06 238.885 386.06ZM238.885 381.272C238.685 381.272 238.517 381.208 238.381 381.08C238.253 380.944 238.189 380.78 238.189 380.588C238.189 380.396 238.253 380.236 238.381 380.108C238.517 379.972 238.685 379.904 238.885 379.904C239.077 379.904 239.237 379.972 239.365 380.108C239.501 380.236 239.569 380.396 239.569 380.588C239.569 380.78 239.501 380.944 239.365 381.08C239.237 381.208 239.077 381.272 238.885 381.272ZM243.604 386.144C243.068 386.144 242.584 386.048 242.152 385.856C241.72 385.656 241.372 385.36 241.108 384.968C240.852 384.576 240.716 384.088 240.7 383.504H241.72C241.728 383.984 241.896 384.4 242.224 384.752C242.552 385.096 243.012 385.268 243.604 385.268C244.196 385.268 244.64 385.104 244.936 384.776C245.24 384.448 245.392 384.052 245.392 383.588C245.392 383.196 245.296 382.876 245.104 382.628C244.92 382.38 244.668 382.196 244.348 382.076C244.036 381.956 243.692 381.896 243.316 381.896H242.692V381.044H243.316C243.86 381.044 244.284 380.92 244.588 380.672C244.9 380.424 245.056 380.076 245.056 379.628C245.056 379.252 244.932 378.944 244.684 378.704C244.444 378.456 244.084 378.332 243.604 378.332C243.14 378.332 242.768 378.472 242.488 378.752C242.208 379.024 242.052 379.368 242.02 379.784H241C241.024 379.328 241.144 378.924 241.36 378.572C241.584 378.22 241.888 377.948 242.272 377.756C242.656 377.556 243.1 377.456 243.604 377.456C244.148 377.456 244.6 377.552 244.96 377.744C245.328 377.936 245.604 378.192 245.788 378.512C245.98 378.832 246.076 379.184 246.076 379.568C246.076 379.992 245.96 380.38 245.728 380.732C245.496 381.076 245.148 381.308 244.684 381.428C245.18 381.532 245.592 381.768 245.92 382.136C246.248 382.504 246.412 382.988 246.412 383.588C246.412 384.052 246.304 384.48 246.088 384.872C245.88 385.256 245.568 385.564 245.152 385.796C244.736 386.028 244.22 386.144 243.604 386.144ZM251.318 386.144C250.574 386.144 249.93 385.964 249.386 385.604C248.85 385.236 248.438 384.728 248.15 384.08C247.862 383.424 247.718 382.664 247.718 381.8C247.718 380.936 247.862 380.18 248.15 379.532C248.438 378.876 248.85 378.368 249.386 378.008C249.93 377.64 250.574 377.456 251.318 377.456C252.062 377.456 252.702 377.64 253.238 378.008C253.774 378.368 254.186 378.876 254.474 379.532C254.762 380.18 254.906 380.936 254.906 381.8C254.906 382.664 254.762 383.424 254.474 384.08C254.186 384.728 253.774 385.236 253.238 385.604C252.702 385.964 252.062 386.144 251.318 386.144ZM251.318 385.256C251.806 385.256 252.242 385.12 252.626 384.848C253.018 384.568 253.322 384.172 253.538 383.66C253.762 383.14 253.874 382.52 253.874 381.8C253.874 381.08 253.762 380.464 253.538 379.952C253.322 379.44 253.018 379.048 252.626 378.776C252.242 378.496 251.806 378.356 251.318 378.356C250.822 378.356 250.382 378.496 249.998 378.776C249.614 379.048 249.31 379.44 249.086 379.952C248.862 380.464 248.75 381.08 248.75 381.8C248.75 382.52 248.862 383.14 249.086 383.66C249.31 384.172 249.614 384.568 249.998 384.848C250.382 385.12 250.822 385.256 251.318 385.256ZM259.01 386L262.106 377.6H263.174L266.258 386H265.19L264.422 383.84H260.846L260.066 386H259.01ZM261.146 383.024H264.122L262.634 378.872L261.146 383.024ZM267.507 386V377.6H268.683L271.707 383.456L274.707 377.6H275.895V386H274.887V379.4L272.079 384.8H271.323L268.515 379.412V386H267.507Z" fill="#68718B"/>
<path d="M135.06 386V378.728L133.704 379.028V378.332L135.396 377.6H136.08V386H135.06ZM138.681 386V378.728L137.325 379.028V378.332L139.017 377.6H139.701V386H138.681ZM141.762 386.06C141.562 386.06 141.394 385.996 141.258 385.868C141.13 385.732 141.066 385.568 141.066 385.376C141.066 385.184 141.13 385.024 141.258 384.896C141.394 384.76 141.562 384.692 141.762 384.692C141.954 384.692 142.114 384.76 142.242 384.896C142.378 385.024 142.446 385.184 142.446 385.376C142.446 385.568 142.378 385.732 142.242 385.868C142.114 385.996 141.954 386.06 141.762 386.06ZM141.762 381.272C141.562 381.272 141.394 381.208 141.258 381.08C141.13 380.944 141.066 380.78 141.066 380.588C141.066 380.396 141.13 380.236 141.258 380.108C141.394 379.972 141.562 379.904 141.762 379.904C141.954 379.904 142.114 379.972 142.242 380.108C142.378 380.236 142.446 380.396 142.446 380.588C142.446 380.78 142.378 380.944 142.242 381.08C142.114 381.208 141.954 381.272 141.762 381.272ZM146.481 386.144C145.945 386.144 145.461 386.048 145.029 385.856C144.597 385.656 144.249 385.36 143.985 384.968C143.729 384.576 143.593 384.088 143.577 383.504H144.597C144.605 383.984 144.773 384.4 145.101 384.752C145.429 385.096 145.889 385.268 146.481 385.268C147.073 385.268 147.517 385.104 147.813 384.776C148.117 384.448 148.269 384.052 148.269 383.588C148.269 383.196 148.173 382.876 147.981 382.628C147.797 382.38 147.545 382.196 147.225 382.076C146.913 381.956 146.569 381.896 146.193 381.896H145.569V381.044H146.193C146.737 381.044 147.161 380.92 147.465 380.672C147.777 380.424 147.933 380.076 147.933 379.628C147.933 379.252 147.809 378.944 147.561 378.704C147.321 378.456 146.961 378.332 146.481 378.332C146.017 378.332 145.645 378.472 145.365 378.752C145.085 379.024 144.929 379.368 144.897 379.784H143.877C143.901 379.328 144.021 378.924 144.237 378.572C144.461 378.22 144.765 377.948 145.149 377.756C145.533 377.556 145.977 377.456 146.481 377.456C147.025 377.456 147.477 377.552 147.837 377.744C148.205 377.936 148.481 378.192 148.665 378.512C148.857 378.832 148.953 379.184 148.953 379.568C148.953 379.992 148.837 380.38 148.605 380.732C148.373 381.076 148.025 381.308 147.561 381.428C148.057 381.532 148.469 381.768 148.797 382.136C149.125 382.504 149.289 382.988 149.289 383.588C149.289 384.052 149.181 384.48 148.965 384.872C148.757 385.256 148.445 385.564 148.029 385.796C147.613 386.028 147.097 386.144 146.481 386.144ZM154.195 386.144C153.451 386.144 152.807 385.964 152.263 385.604C151.727 385.236 151.315 384.728 151.027 384.08C150.739 383.424 150.595 382.664 150.595 381.8C150.595 380.936 150.739 380.18 151.027 379.532C151.315 378.876 151.727 378.368 152.263 378.008C152.807 377.64 153.451 377.456 154.195 377.456C154.939 377.456 155.579 377.64 156.115 378.008C156.651 378.368 157.063 378.876 157.351 379.532C157.639 380.18 157.783 380.936 157.783 381.8C157.783 382.664 157.639 383.424 157.351 384.08C157.063 384.728 156.651 385.236 156.115 385.604C155.579 385.964 154.939 386.144 154.195 386.144ZM154.195 385.256C154.683 385.256 155.119 385.12 155.503 384.848C155.895 384.568 156.199 384.172 156.415 383.66C156.639 383.14 156.751 382.52 156.751 381.8C156.751 381.08 156.639 380.464 156.415 379.952C156.199 379.44 155.895 379.048 155.503 378.776C155.119 378.496 154.683 378.356 154.195 378.356C153.699 378.356 153.259 378.496 152.875 378.776C152.491 379.048 152.187 379.44 151.963 379.952C151.739 380.464 151.627 381.08 151.627 381.8C151.627 382.52 151.739 383.14 151.963 383.66C152.187 384.172 152.491 384.568 152.875 384.848C153.259 385.12 153.699 385.256 154.195 385.256ZM161.887 386L164.983 377.6H166.051L169.135 386H168.067L167.299 383.84H163.723L162.943 386H161.887ZM164.023 383.024H166.999L165.511 378.872L164.023 383.024ZM170.384 386V377.6H171.56L174.584 383.456L177.584 377.6H178.772V386H177.764V379.4L174.956 384.8H174.2L171.392 379.412V386H170.384Z" fill="#68718B"/>
<rect x="24" y="39" width="48" height="48" rx="10" fill="#006EEA"/>
<path fill-rule="evenodd" clip-rule="evenodd" d="M54.6667 51.6667C54.6667 51.2987 54.3667 51 54 51H50.6667C46.984 51 44 53.6867 44 57V60.6H40.6667C40.2987 60.6 40 60.8987 40 61.2667V64.7333C40 65.1013 40.2987 65.4 40.6667 65.4H44V74.3333C44 74.7013 44.2987 75 44.6667 75H48.6667C49.0333 75 49.3333 74.7013 49.3333 74.3333V65.4H52.8253C53.1253 65.4 53.388 65.2 53.4693 64.912L54.4307 61.4453C54.5493 61.0213 54.2293 60.6 53.7893 60.6H49.3333V57C49.3333 56.3373 49.9293 55.8 50.6667 55.8H54C54.3667 55.8 54.6667 55.5013 54.6667 55.1333V51.6667Z" fill="#03133D"/>
<mask id="mask0_3275_15280" style="mask-type:luminance" maskUnits="userSpaceOnUse" x="40" y="51" width="15" height="24">
<path fill-rule="evenodd" clip-rule="evenodd" d="M54.6667 51.6667C54.6667 51.2987 54.3667 51 54 51H50.6667C46.984 51 44 53.6867 44 57V60.6H40.6667C40.2987 60.6 40 60.8987 40 61.2667V64.7333C40 65.1013 40.2987 65.4 40.6667 65.4H44V74.3333C44 74.7013 44.2987 75 44.6667 75H48.6667C49.0333 75 49.3333 74.7013 49.3333 74.3333V65.4H52.8253C53.1253 65.4 53.388 65.2 53.4693 64.912L54.4307 61.4453C54.5493 61.0213 54.2293 60.6 53.7893 60.6H49.3333V57C49.3333 56.3373 49.9293 55.8 50.6667 55.8H54C54.3667 55.8 54.6667 55.5013 54.6667 55.1333V51.6667Z" fill="white"/>
</mask>
<g mask="url(#mask0_3275_15280)">
<rect x="32" y="47" width="32" height="32" fill="white"/>
</g>
<rect x="132" y="133" width="48" height="48" rx="10" fill="#0298EB"/>
<path fill-rule="evenodd" clip-rule="evenodd" d="M150.769 167.667C160.431 167.667 166.02 160.166 166.02 153.047C166.02 152.851 167.393 151.672 167.981 149.215C168.101 148.716 167.616 148.323 167.159 148.532C165.985 149.071 164.795 148.644 164.277 148.031C162.288 145.862 158.961 145.758 156.845 147.798C155.481 149.114 154.903 151.074 155.325 152.944C150.857 153.263 147.789 151.146 145.267 148.243C144.941 147.866 144.337 148.064 144.269 148.563C143.896 151.339 143.779 158.088 150.467 161.964C149.305 163.634 147.032 164.619 144.501 165.042C143.941 165.136 143.808 165.912 144.32 166.163C146.325 167.15 148.529 167.666 150.769 167.663" fill="#03133D"/>
<mask id="mask1_3275_15280" style="mask-type:luminance" maskUnits="userSpaceOnUse" x="144" y="146" width="24" height="22">
<path fill-rule="evenodd" clip-rule="evenodd" d="M150.769 167.667C160.431 167.667 166.02 160.166 166.02 153.047C166.02 152.851 167.393 151.672 167.981 149.215C168.101 148.716 167.616 148.323 167.159 148.532C165.985 149.071 164.795 148.644 164.277 148.031C162.288 145.862 158.961 145.758 156.845 147.798C155.481 149.114 154.903 151.074 155.325 152.944C150.857 153.263 147.789 151.146 145.267 148.243C144.941 147.866 144.337 148.064 144.269 148.563C143.896 151.339 143.779 158.088 150.467 161.964C149.305 163.634 147.032 164.619 144.501 165.042C143.941 165.136 143.808 165.912 144.32 166.163C146.325 167.15 148.529 167.666 150.769 167.663" fill="white"/>
</mask>
<g mask="url(#mask1_3275_15280)">
<rect x="140" y="141" width="32" height="32" fill="white"/>
</g>
<rect x="267" width="194" height="205" rx="10" fill="url(#paint1_linear_3275_15280)"/>
<path d="M322.852 84.4113C316.761 89.8959 311.858 96.5705 308.446 104.023C305.034 111.476 303.185 119.549 303.013 127.743C302.842 135.938 304.351 144.081 307.448 151.67C310.545 159.259 315.164 166.133 321.02 171.868L329.416 163.295C324.731 158.707 321.036 153.208 318.558 147.136C316.081 141.065 314.873 134.551 315.011 127.995C315.148 121.439 316.627 114.981 319.357 109.019C322.086 103.056 326.009 97.7167 330.882 93.329L322.852 84.4113Z" fill="#0097FE"/>
<path d="M318.411 169.148C326.89 178.564 338.131 185.054 350.525 187.689C362.919 190.323 375.829 188.966 387.404 183.813C398.98 178.659 408.626 169.973 414.962 159C421.297 148.027 423.996 135.33 422.671 122.728L410.737 123.983C411.797 134.064 409.638 144.221 404.569 153C399.501 161.779 391.784 168.727 382.523 172.85C373.263 176.973 362.935 178.059 353.02 175.951C343.105 173.844 334.112 168.651 327.329 161.118L318.411 169.148Z" fill="#FFCC5E"/>
<path d="M427 129C427 116.171 423.144 103.638 415.933 93.0267C408.722 82.4158 398.488 74.2171 386.56 69.4943C374.632 64.7715 361.559 63.7427 349.039 66.5413C336.519 69.34 325.128 75.8368 316.346 85.189L330.342 98.3323C336.49 91.7858 344.463 87.238 353.227 85.2789C361.991 83.3199 371.142 84.0401 379.492 87.346C387.842 90.652 395.005 96.3911 400.053 103.819C405.101 111.246 407.8 120.019 407.8 129H427Z" fill="white"/>
<path d="M333.063 119V109.2H339.027V110.166H334.239V113.61H338.313V114.562H334.239V119H333.063ZM342.303 119.168C341.725 119.168 341.244 119.07 340.861 118.874C340.479 118.678 340.194 118.417 340.007 118.09C339.821 117.763 339.727 117.409 339.727 117.026C339.727 116.317 339.998 115.771 340.539 115.388C341.081 115.005 341.818 114.814 342.751 114.814H344.627V114.73C344.627 114.123 344.469 113.666 344.151 113.358C343.834 113.041 343.409 112.882 342.877 112.882C342.42 112.882 342.023 112.999 341.687 113.232C341.361 113.456 341.155 113.787 341.071 114.226H339.867C339.914 113.722 340.082 113.297 340.371 112.952C340.67 112.607 341.039 112.345 341.477 112.168C341.916 111.981 342.383 111.888 342.877 111.888C343.848 111.888 344.576 112.149 345.061 112.672C345.556 113.185 345.803 113.871 345.803 114.73V119H344.753L344.683 117.754C344.487 118.146 344.198 118.482 343.815 118.762C343.442 119.033 342.938 119.168 342.303 119.168ZM342.485 118.174C342.933 118.174 343.316 118.057 343.633 117.824C343.96 117.591 344.207 117.287 344.375 116.914C344.543 116.541 344.627 116.149 344.627 115.738V115.724H342.849C342.159 115.724 341.669 115.845 341.379 116.088C341.099 116.321 340.959 116.615 340.959 116.97C340.959 117.334 341.09 117.628 341.351 117.852C341.622 118.067 342 118.174 342.485 118.174ZM350.76 119.168C350.097 119.168 349.5 119.019 348.968 118.72C348.445 118.412 348.03 117.987 347.722 117.446C347.423 116.895 347.274 116.256 347.274 115.528C347.274 114.8 347.423 114.165 347.722 113.624C348.03 113.073 348.445 112.649 348.968 112.35C349.5 112.042 350.097 111.888 350.76 111.888C351.581 111.888 352.272 112.103 352.832 112.532C353.401 112.961 353.76 113.535 353.91 114.254H352.706C352.612 113.825 352.384 113.493 352.02 113.26C351.656 113.017 351.231 112.896 350.746 112.896C350.354 112.896 349.985 112.994 349.64 113.19C349.294 113.386 349.014 113.68 348.8 114.072C348.585 114.464 348.478 114.949 348.478 115.528C348.478 116.107 348.585 116.592 348.8 116.984C349.014 117.376 349.294 117.675 349.64 117.88C349.985 118.076 350.354 118.174 350.746 118.174C351.231 118.174 351.656 118.057 352.02 117.824C352.384 117.581 352.612 117.241 352.706 116.802H353.91C353.77 117.502 353.415 118.071 352.846 118.51C352.276 118.949 351.581 119.168 350.76 119.168ZM358.674 119.168C358.011 119.168 357.423 119.019 356.91 118.72C356.397 118.412 355.991 117.987 355.692 117.446C355.403 116.905 355.258 116.265 355.258 115.528C355.258 114.8 355.403 114.165 355.692 113.624C355.981 113.073 356.383 112.649 356.896 112.35C357.419 112.042 358.021 111.888 358.702 111.888C359.374 111.888 359.953 112.042 360.438 112.35C360.933 112.649 361.311 113.045 361.572 113.54C361.833 114.035 361.964 114.567 361.964 115.136C361.964 115.239 361.959 115.341 361.95 115.444C361.95 115.547 361.95 115.663 361.95 115.794H356.42C356.448 116.326 356.569 116.769 356.784 117.124C357.008 117.469 357.283 117.731 357.61 117.908C357.946 118.085 358.301 118.174 358.674 118.174C359.159 118.174 359.565 118.062 359.892 117.838C360.219 117.614 360.457 117.311 360.606 116.928H361.768C361.581 117.572 361.222 118.109 360.69 118.538C360.167 118.958 359.495 119.168 358.674 119.168ZM358.674 112.882C358.114 112.882 357.615 113.055 357.176 113.4C356.747 113.736 356.499 114.231 356.434 114.884H360.802C360.774 114.259 360.559 113.769 360.158 113.414C359.757 113.059 359.262 112.882 358.674 112.882ZM367.233 119.168C366.663 119.168 366.155 119.051 365.707 118.818C365.268 118.585 364.932 118.258 364.699 117.838L364.587 119H363.523V108.92H364.699V113.204C364.923 112.868 365.24 112.565 365.651 112.294C366.071 112.023 366.603 111.888 367.247 111.888C367.937 111.888 368.539 112.047 369.053 112.364C369.566 112.681 369.963 113.115 370.243 113.666C370.532 114.217 370.677 114.842 370.677 115.542C370.677 116.242 370.532 116.867 370.243 117.418C369.963 117.959 369.561 118.389 369.039 118.706C368.525 119.014 367.923 119.168 367.233 119.168ZM367.107 118.146C367.573 118.146 367.984 118.039 368.339 117.824C368.693 117.6 368.973 117.292 369.179 116.9C369.384 116.508 369.487 116.051 369.487 115.528C369.487 115.005 369.384 114.548 369.179 114.156C368.973 113.764 368.693 113.461 368.339 113.246C367.984 113.022 367.573 112.91 367.107 112.91C366.64 112.91 366.229 113.022 365.875 113.246C365.52 113.461 365.24 113.764 365.035 114.156C364.829 114.548 364.727 115.005 364.727 115.528C364.727 116.051 364.829 116.508 365.035 116.9C365.24 117.292 365.52 117.6 365.875 117.824C366.229 118.039 366.64 118.146 367.107 118.146ZM375.478 119.168C374.824 119.168 374.236 119.019 373.714 118.72C373.191 118.421 372.776 118.001 372.468 117.46C372.169 116.909 372.02 116.265 372.02 115.528C372.02 114.791 372.174 114.151 372.482 113.61C372.79 113.059 373.205 112.635 373.728 112.336C374.26 112.037 374.852 111.888 375.506 111.888C376.159 111.888 376.747 112.037 377.27 112.336C377.792 112.635 378.203 113.059 378.502 113.61C378.81 114.151 378.964 114.791 378.964 115.528C378.964 116.265 378.81 116.909 378.502 117.46C378.194 118.001 377.774 118.421 377.242 118.72C376.719 119.019 376.131 119.168 375.478 119.168ZM375.478 118.16C375.879 118.16 376.252 118.062 376.598 117.866C376.943 117.67 377.223 117.376 377.438 116.984C377.652 116.592 377.76 116.107 377.76 115.528C377.76 114.949 377.652 114.464 377.438 114.072C377.232 113.68 376.957 113.386 376.612 113.19C376.266 112.994 375.898 112.896 375.506 112.896C375.104 112.896 374.731 112.994 374.386 113.19C374.04 113.386 373.76 113.68 373.546 114.072C373.331 114.464 373.224 114.949 373.224 115.528C373.224 116.107 373.331 116.592 373.546 116.984C373.76 117.376 374.036 117.67 374.372 117.866C374.717 118.062 375.086 118.16 375.478 118.16ZM383.763 119.168C383.109 119.168 382.521 119.019 381.999 118.72C381.476 118.421 381.061 118.001 380.753 117.46C380.454 116.909 380.305 116.265 380.305 115.528C380.305 114.791 380.459 114.151 380.767 113.61C381.075 113.059 381.49 112.635 382.013 112.336C382.545 112.037 383.137 111.888 383.791 111.888C384.444 111.888 385.032 112.037 385.555 112.336C386.077 112.635 386.488 113.059 386.787 113.61C387.095 114.151 387.249 114.791 387.249 115.528C387.249 116.265 387.095 116.909 386.787 117.46C386.479 118.001 386.059 118.421 385.527 118.72C385.004 119.019 384.416 119.168 383.763 119.168ZM383.763 118.16C384.164 118.16 384.537 118.062 384.883 117.866C385.228 117.67 385.508 117.376 385.723 116.984C385.937 116.592 386.045 116.107 386.045 115.528C386.045 114.949 385.937 114.464 385.723 114.072C385.517 113.68 385.242 113.386 384.897 113.19C384.551 112.994 384.183 112.896 383.791 112.896C383.389 112.896 383.016 112.994 382.671 113.19C382.325 113.386 382.045 113.68 381.831 114.072C381.616 114.464 381.509 114.949 381.509 115.528C381.509 116.107 381.616 116.592 381.831 116.984C382.045 117.376 382.321 117.67 382.657 117.866C383.002 118.062 383.371 118.16 383.763 118.16ZM388.884 119V108.92H390.06V114.982L392.902 112.056H394.344L391.264 115.192L394.736 119H393.238L390.06 115.402V119H388.884Z" fill="white"/>
<path d="M346.235 149.288C345.131 149.288 344.131 149.096 343.235 148.712C342.339 148.312 341.619 147.704 341.075 146.888C340.531 146.072 340.243 145.048 340.211 143.816H343.235C343.251 144.632 343.515 145.32 344.027 145.88C344.555 146.424 345.291 146.696 346.235 146.696C347.131 146.696 347.819 146.448 348.299 145.952C348.779 145.456 349.019 144.832 349.019 144.08C349.019 143.2 348.699 142.536 348.059 142.088C347.435 141.624 346.627 141.392 345.635 141.392H344.387V138.872H345.659C346.475 138.872 347.155 138.68 347.699 138.296C348.243 137.912 348.515 137.344 348.515 136.592C348.515 135.968 348.307 135.472 347.891 135.104C347.491 134.72 346.931 134.528 346.211 134.528C345.427 134.528 344.811 134.76 344.363 135.224C343.931 135.688 343.691 136.256 343.643 136.928H340.643C340.707 135.376 341.243 134.152 342.251 133.256C343.275 132.36 344.595 131.912 346.211 131.912C347.363 131.912 348.331 132.12 349.115 132.536C349.915 132.936 350.515 133.472 350.915 134.144C351.331 134.816 351.539 135.56 351.539 136.376C351.539 137.32 351.275 138.12 350.747 138.776C350.235 139.416 349.595 139.848 348.827 140.072C349.771 140.264 350.539 140.728 351.131 141.464C351.723 142.184 352.019 143.096 352.019 144.2C352.019 145.128 351.795 145.976 351.347 146.744C350.899 147.512 350.243 148.128 349.379 148.592C348.531 149.056 347.483 149.288 346.235 149.288ZM360.628 149.288C359.364 149.288 358.3 149.056 357.436 148.592C356.572 148.128 355.876 147.504 355.348 146.72C354.82 145.936 354.436 145.064 354.196 144.104C353.972 143.144 353.86 142.16 353.86 141.152C353.86 139.28 354.124 137.656 354.652 136.28C355.18 134.888 355.94 133.816 356.932 133.064C357.924 132.296 359.124 131.912 360.532 131.912C361.684 131.912 362.66 132.144 363.46 132.608C364.276 133.056 364.908 133.648 365.356 134.384C365.804 135.12 366.068 135.912 366.148 136.76H363.292C363.148 136.024 362.836 135.456 362.356 135.056C361.876 134.656 361.26 134.456 360.508 134.456C359.436 134.456 358.572 134.952 357.916 135.944C357.26 136.92 356.908 138.416 356.86 140.432C357.244 139.776 357.82 139.232 358.588 138.8C359.356 138.368 360.212 138.152 361.156 138.152C362.084 138.152 362.956 138.376 363.772 138.824C364.588 139.272 365.244 139.904 365.74 140.72C366.252 141.536 366.508 142.496 366.508 143.6C366.508 144.608 366.26 145.544 365.764 146.408C365.284 147.272 364.596 147.968 363.7 148.496C362.82 149.024 361.796 149.288 360.628 149.288ZM360.46 146.648C361.356 146.648 362.092 146.376 362.668 145.832C363.26 145.272 363.556 144.568 363.556 143.72C363.556 142.824 363.26 142.104 362.668 141.56C362.076 141.016 361.324 140.744 360.412 140.744C359.82 140.744 359.284 140.88 358.804 141.152C358.34 141.408 357.972 141.76 357.7 142.208C357.428 142.64 357.292 143.128 357.292 143.672C357.292 144.536 357.588 145.248 358.18 145.808C358.788 146.368 359.548 146.648 360.46 146.648ZM372.052 140.456C371.284 140.456 370.588 140.288 369.964 139.952C369.34 139.6 368.844 139.104 368.476 138.464C368.108 137.824 367.924 137.064 367.924 136.184C367.924 135.304 368.108 134.544 368.476 133.904C368.844 133.264 369.34 132.776 369.964 132.44C370.588 132.088 371.292 131.912 372.076 131.912C372.844 131.912 373.532 132.088 374.14 132.44C374.764 132.776 375.26 133.264 375.628 133.904C375.996 134.544 376.18 135.304 376.18 136.184C376.18 137.064 375.996 137.824 375.628 138.464C375.26 139.104 374.764 139.6 374.14 139.952C373.516 140.288 372.82 140.456 372.052 140.456ZM371.14 149L380.62 132.2H383.62L374.14 149H371.14ZM372.052 138.32C372.516 138.32 372.916 138.144 373.252 137.792C373.588 137.424 373.756 136.888 373.756 136.184C373.756 135.48 373.588 134.944 373.252 134.576C372.932 134.208 372.532 134.024 372.052 134.024C371.572 134.024 371.164 134.208 370.828 134.576C370.508 134.944 370.348 135.48 370.348 136.184C370.348 136.888 370.508 137.424 370.828 137.792C371.164 138.144 371.572 138.32 372.052 138.32ZM382.804 149.288C382.036 149.288 381.34 149.12 380.716 148.784C380.092 148.432 379.596 147.936 379.228 147.296C378.86 146.656 378.676 145.896 378.676 145.016C378.676 144.136 378.86 143.384 379.228 142.76C379.596 142.12 380.092 141.632 380.716 141.296C381.34 140.944 382.044 140.768 382.828 140.768C383.596 140.768 384.284 140.944 384.892 141.296C385.516 141.632 386.012 142.12 386.38 142.76C386.748 143.384 386.932 144.136 386.932 145.016C386.932 145.896 386.748 146.656 386.38 147.296C386.012 147.936 385.516 148.432 384.892 148.784C384.284 149.12 383.588 149.288 382.804 149.288ZM382.804 147.152C383.284 147.152 383.684 146.976 384.004 146.624C384.34 146.256 384.508 145.72 384.508 145.016C384.508 144.312 384.34 143.776 384.004 143.408C383.684 143.04 383.284 142.856 382.804 142.856C382.324 142.856 381.916 143.04 381.58 143.408C381.26 143.776 381.1 144.312 381.1 145.016C381.1 145.72 381.26 146.256 381.58 146.624C381.916 146.976 382.324 147.152 382.804 147.152Z" fill="white"/>
<path d="M306.554 30V19.254H302.882V17.4H312.548V19.254H308.858V30H306.554ZM313.322 30V21.072H315.374L315.59 22.746C315.914 22.17 316.352 21.714 316.904 21.378C317.468 21.03 318.128 20.856 318.884 20.856V23.286H318.236C317.732 23.286 317.282 23.364 316.886 23.52C316.49 23.676 316.178 23.946 315.95 24.33C315.734 24.714 315.626 25.248 315.626 25.932V30H313.322ZM323.537 30.216C322.769 30.216 322.139 30.096 321.647 29.856C321.155 29.604 320.789 29.274 320.549 28.866C320.309 28.458 320.189 28.008 320.189 27.516C320.189 26.688 320.513 26.016 321.161 25.5C321.809 24.984 322.781 24.726 324.077 24.726H326.345V24.51C326.345 23.898 326.171 23.448 325.823 23.16C325.475 22.872 325.043 22.728 324.527 22.728C324.059 22.728 323.651 22.842 323.303 23.07C322.955 23.286 322.739 23.61 322.655 24.042H320.405C320.465 23.394 320.681 22.83 321.053 22.35C321.437 21.87 321.929 21.504 322.529 21.252C323.129 20.988 323.801 20.856 324.545 20.856C325.817 20.856 326.819 21.174 327.551 21.81C328.283 22.446 328.649 23.346 328.649 24.51V30H326.687L326.471 28.56C326.207 29.04 325.835 29.436 325.355 29.748C324.887 30.06 324.281 30.216 323.537 30.216ZM324.059 28.416C324.719 28.416 325.229 28.2 325.589 27.768C325.961 27.336 326.195 26.802 326.291 26.166H324.329C323.717 26.166 323.279 26.28 323.015 26.508C322.751 26.724 322.619 26.994 322.619 27.318C322.619 27.666 322.751 27.936 323.015 28.128C323.279 28.32 323.627 28.416 324.059 28.416ZM331.262 30V22.998H330.038V21.072H331.262V20.028C331.262 18.948 331.532 18.18 332.072 17.724C332.624 17.268 333.368 17.04 334.304 17.04H335.294V19.002H334.664C334.268 19.002 333.986 19.08 333.818 19.236C333.65 19.392 333.566 19.656 333.566 20.028V21.072H335.492V22.998H333.566V30H331.262ZM337.73 30V22.998H336.506V21.072H337.73V20.028C337.73 18.948 338 18.18 338.54 17.724C339.092 17.268 339.836 17.04 340.772 17.04H341.762V19.002H341.132C340.736 19.002 340.454 19.08 340.286 19.236C340.118 19.392 340.034 19.656 340.034 20.028V21.072H345.794V30H343.49V22.998H340.034V30H337.73ZM344.66 19.794C344.24 19.794 343.892 19.668 343.616 19.416C343.352 19.164 343.22 18.846 343.22 18.462C343.22 18.078 343.352 17.766 343.616 17.526C343.892 17.274 344.24 17.148 344.66 17.148C345.08 17.148 345.422 17.274 345.686 17.526C345.962 17.766 346.1 18.078 346.1 18.462C346.1 18.846 345.962 19.164 345.686 19.416C345.422 19.668 345.08 19.794 344.66 19.794ZM352.607 30.216C351.695 30.216 350.891 30.018 350.195 29.622C349.499 29.226 348.947 28.674 348.539 27.966C348.143 27.258 347.945 26.448 347.945 25.536C347.945 24.624 348.143 23.814 348.539 23.106C348.947 22.398 349.499 21.846 350.195 21.45C350.891 21.054 351.695 20.856 352.607 20.856C353.747 20.856 354.707 21.156 355.487 21.756C356.267 22.344 356.765 23.16 356.98 24.204H354.551C354.431 23.772 354.191 23.436 353.831 23.196C353.483 22.944 353.069 22.818 352.589 22.818C351.953 22.818 351.413 23.058 350.969 23.538C350.525 24.018 350.303 24.684 350.303 25.536C350.303 26.388 350.525 27.054 350.969 27.534C351.413 28.014 351.953 28.254 352.589 28.254C353.069 28.254 353.483 28.134 353.831 27.894C354.191 27.654 354.431 27.312 354.551 26.868H356.98C356.765 27.876 356.267 28.686 355.487 29.298C354.707 29.91 353.747 30.216 352.607 30.216ZM368.877 30.216C367.689 30.216 366.651 29.946 365.763 29.406C364.875 28.866 364.185 28.116 363.693 27.156C363.201 26.184 362.955 25.056 362.955 23.772C362.955 22.476 363.207 21.336 363.711 20.352C364.227 19.356 364.953 18.582 365.889 18.03C366.837 17.466 367.959 17.184 369.255 17.184C370.731 17.184 371.955 17.538 372.927 18.246C373.899 18.954 374.529 19.932 374.817 21.18H372.243C372.051 20.592 371.703 20.136 371.199 19.812C370.695 19.476 370.047 19.308 369.255 19.308C367.995 19.308 367.023 19.71 366.339 20.514C365.655 21.306 365.313 22.398 365.313 23.79C365.313 25.182 365.649 26.262 366.321 27.03C367.005 27.786 367.929 28.164 369.093 28.164C370.233 28.164 371.091 27.858 371.667 27.246C372.255 26.622 372.609 25.806 372.729 24.798H369.543V23.07H375.051V30H372.927L372.747 28.344C372.339 28.944 371.829 29.406 371.217 29.73C370.605 30.054 369.825 30.216 368.877 30.216ZM377.236 30V21.072H379.288L379.504 22.746C379.828 22.17 380.266 21.714 380.818 21.378C381.382 21.03 382.042 20.856 382.798 20.856V23.286H382.15C381.646 23.286 381.196 23.364 380.8 23.52C380.404 23.676 380.092 23.946 379.864 24.33C379.648 24.714 379.54 25.248 379.54 25.932V30H377.236ZM388.499 30.216C387.635 30.216 386.855 30.018 386.159 29.622C385.475 29.226 384.929 28.68 384.521 27.984C384.125 27.276 383.927 26.46 383.927 25.536C383.927 24.612 384.131 23.802 384.539 23.106C384.947 22.398 385.493 21.846 386.177 21.45C386.873 21.054 387.653 20.856 388.517 20.856C389.369 20.856 390.137 21.054 390.821 21.45C391.517 21.846 392.063 22.398 392.459 23.106C392.867 23.802 393.071 24.612 393.071 25.536C393.071 26.46 392.867 27.276 392.459 27.984C392.063 28.68 391.517 29.226 390.821 29.622C390.125 30.018 389.351 30.216 388.499 30.216ZM388.499 28.218C389.099 28.218 389.621 27.996 390.065 27.552C390.509 27.096 390.731 26.424 390.731 25.536C390.731 24.648 390.509 23.982 390.065 23.538C389.621 23.082 389.105 22.854 388.517 22.854C387.905 22.854 387.377 23.082 386.933 23.538C386.501 23.982 386.285 24.648 386.285 25.536C386.285 26.424 386.501 27.096 386.933 27.552C387.377 27.996 387.899 28.218 388.499 28.218ZM396.561 30L393.951 21.072H396.237L397.785 27.498L399.585 21.072H402.141L403.941 27.498L405.507 21.072H407.793L405.165 30H402.771L400.863 23.322L398.955 30H396.561ZM413.224 30C412.288 30 411.538 29.772 410.974 29.316C410.41 28.86 410.128 28.05 410.128 26.886V22.998H408.598V21.072H410.128L410.398 18.678H412.432V21.072H414.844V22.998H412.432V26.904C412.432 27.336 412.522 27.636 412.702 27.804C412.894 27.96 413.218 28.038 413.674 28.038H414.79V30H413.224ZM416.822 30V17.04H419.126V22.44C419.426 21.948 419.828 21.564 420.332 21.288C420.848 21 421.436 20.856 422.096 20.856C423.2 20.856 424.052 21.204 424.652 21.9C425.264 22.596 425.57 23.616 425.57 24.96V30H423.284V25.176C423.284 24.408 423.128 23.82 422.816 23.412C422.516 23.004 422.036 22.8 421.376 22.8C420.728 22.8 420.188 23.028 419.756 23.484C419.336 23.94 419.126 24.576 419.126 25.392V30H416.822Z" fill="white"/>
<path d="M294.194 53V45.428H291.686V44.6H297.71V45.428H295.202V53H294.194ZM300.515 53.144C299.955 53.144 299.451 53.016 299.003 52.76C298.555 52.504 298.199 52.144 297.935 51.68C297.679 51.208 297.551 50.656 297.551 50.024C297.551 49.392 297.683 48.844 297.947 48.38C298.211 47.908 298.567 47.544 299.015 47.288C299.471 47.032 299.979 46.904 300.539 46.904C301.099 46.904 301.603 47.032 302.051 47.288C302.499 47.544 302.851 47.908 303.107 48.38C303.371 48.844 303.503 49.392 303.503 50.024C303.503 50.656 303.371 51.208 303.107 51.68C302.843 52.144 302.483 52.504 302.027 52.76C301.579 53.016 301.075 53.144 300.515 53.144ZM300.515 52.28C300.859 52.28 301.179 52.196 301.475 52.028C301.771 51.86 302.011 51.608 302.195 51.272C302.379 50.936 302.471 50.52 302.471 50.024C302.471 49.528 302.379 49.112 302.195 48.776C302.019 48.44 301.783 48.188 301.487 48.02C301.191 47.852 300.875 47.768 300.539 47.768C300.195 47.768 299.875 47.852 299.579 48.02C299.283 48.188 299.043 48.44 298.859 48.776C298.675 49.112 298.583 49.528 298.583 50.024C298.583 50.52 298.675 50.936 298.859 51.272C299.043 51.608 299.279 51.86 299.567 52.028C299.863 52.196 300.179 52.28 300.515 52.28ZM307.022 53C306.478 53 306.05 52.868 305.738 52.604C305.426 52.34 305.27 51.864 305.27 51.176V47.9H304.238V47.048H305.27L305.402 45.62H306.278V47.048H308.03V47.9H306.278V51.176C306.278 51.552 306.354 51.808 306.506 51.944C306.658 52.072 306.926 52.136 307.31 52.136H307.934V53H307.022ZM311.29 53.144C310.794 53.144 310.382 53.06 310.054 52.892C309.726 52.724 309.482 52.5 309.322 52.22C309.162 51.94 309.082 51.636 309.082 51.308C309.082 50.7 309.314 50.232 309.778 49.904C310.242 49.576 310.874 49.412 311.674 49.412H313.282V49.34C313.282 48.82 313.146 48.428 312.874 48.164C312.602 47.892 312.238 47.756 311.782 47.756C311.39 47.756 311.05 47.856 310.762 48.056C310.482 48.248 310.306 48.532 310.234 48.908H309.202C309.242 48.476 309.386 48.112 309.634 47.816C309.89 47.52 310.206 47.296 310.582 47.144C310.958 46.984 311.358 46.904 311.782 46.904C312.614 46.904 313.238 47.128 313.654 47.576C314.078 48.016 314.29 48.604 314.29 49.34V53H313.39L313.33 51.932C313.162 52.268 312.914 52.556 312.586 52.796C312.266 53.028 311.834 53.144 311.29 53.144ZM311.446 52.292C311.83 52.292 312.158 52.192 312.43 51.992C312.71 51.792 312.922 51.532 313.066 51.212C313.21 50.892 313.282 50.556 313.282 50.204V50.192H311.758C311.166 50.192 310.746 50.296 310.498 50.504C310.258 50.704 310.138 50.956 310.138 51.26C310.138 51.572 310.25 51.824 310.474 52.016C310.706 52.2 311.03 52.292 311.446 52.292ZM315.803 53V44.36H316.811V53H315.803ZM323.991 53C323.447 53 323.019 52.868 322.707 52.604C322.395 52.34 322.239 51.864 322.239 51.176V47.9H321.207V47.048H322.239L322.371 45.62H323.247V47.048H324.999V47.9H323.247V51.176C323.247 51.552 323.323 51.808 323.475 51.944C323.627 52.072 323.895 52.136 324.279 52.136H324.903V53H323.991ZM326.279 53V47.048H327.191L327.275 48.188C327.459 47.796 327.739 47.484 328.115 47.252C328.491 47.02 328.955 46.904 329.507 46.904V47.96H329.231C328.879 47.96 328.555 48.024 328.259 48.152C327.963 48.272 327.727 48.48 327.551 48.776C327.375 49.072 327.287 49.48 327.287 50V53H326.279ZM332.619 53.144C332.123 53.144 331.711 53.06 331.383 52.892C331.055 52.724 330.811 52.5 330.651 52.22C330.491 51.94 330.411 51.636 330.411 51.308C330.411 50.7 330.643 50.232 331.107 49.904C331.571 49.576 332.203 49.412 333.003 49.412H334.611V49.34C334.611 48.82 334.475 48.428 334.203 48.164C333.931 47.892 333.567 47.756 333.111 47.756C332.719 47.756 332.379 47.856 332.091 48.056C331.811 48.248 331.635 48.532 331.563 48.908H330.531C330.571 48.476 330.715 48.112 330.963 47.816C331.219 47.52 331.535 47.296 331.911 47.144C332.287 46.984 332.687 46.904 333.111 46.904C333.943 46.904 334.567 47.128 334.983 47.576C335.407 48.016 335.619 48.604 335.619 49.34V53H334.719L334.659 51.932C334.491 52.268 334.243 52.556 333.915 52.796C333.595 53.028 333.163 53.144 332.619 53.144ZM332.775 52.292C333.159 52.292 333.487 52.192 333.759 51.992C334.039 51.792 334.251 51.532 334.395 51.212C334.539 50.892 334.611 50.556 334.611 50.204V50.192H333.087C332.495 50.192 332.075 50.296 331.827 50.504C331.587 50.704 331.467 50.956 331.467 51.26C331.467 51.572 331.579 51.824 331.803 52.016C332.035 52.2 332.359 52.292 332.775 52.292ZM337.455 53V47.9H336.555V47.048H337.455V46.016C337.455 45.44 337.599 45.02 337.887 44.756C338.175 44.492 338.595 44.36 339.147 44.36H339.747V45.224H339.303C338.999 45.224 338.783 45.288 338.655 45.416C338.527 45.536 338.463 45.744 338.463 46.04V47.048H339.927V47.9H338.463V53H337.455ZM341.451 53V47.9H340.551V47.048H341.451V46.016C341.451 45.44 341.595 45.02 341.883 44.756C342.171 44.492 342.591 44.36 343.143 44.36H343.743V45.224H343.299C342.995 45.224 342.779 45.288 342.651 45.416C342.523 45.536 342.459 45.744 342.459 46.04V47.048H346.155V53H345.147V47.9H342.459V53H341.451ZM345.663 45.908C345.471 45.908 345.307 45.844 345.171 45.716C345.035 45.58 344.967 45.412 344.967 45.212C344.967 45.02 345.035 44.86 345.171 44.732C345.307 44.604 345.471 44.54 345.663 44.54C345.863 44.54 346.027 44.604 346.155 44.732C346.291 44.86 346.359 45.02 346.359 45.212C346.359 45.412 346.291 45.58 346.155 45.716C346.027 45.844 345.863 45.908 345.663 45.908ZM350.671 53.144C350.103 53.144 349.591 53.016 349.135 52.76C348.687 52.496 348.331 52.132 348.067 51.668C347.811 51.196 347.683 50.648 347.683 50.024C347.683 49.4 347.811 48.856 348.067 48.392C348.331 47.92 348.687 47.556 349.135 47.3C349.591 47.036 350.103 46.904 350.671 46.904C351.375 46.904 351.967 47.088 352.447 47.456C352.935 47.824 353.243 48.316 353.371 48.932H352.339C352.259 48.564 352.063 48.28 351.751 48.08C351.439 47.872 351.075 47.768 350.659 47.768C350.323 47.768 350.007 47.852 349.711 48.02C349.415 48.188 349.175 48.44 348.991 48.776C348.807 49.112 348.715 49.528 348.715 50.024C348.715 50.52 348.807 50.936 348.991 51.272C349.175 51.608 349.415 51.864 349.711 52.04C350.007 52.208 350.323 52.292 350.659 52.292C351.075 52.292 351.439 52.192 351.751 51.992C352.063 51.784 352.259 51.492 352.339 51.116H353.371C353.251 51.716 352.947 52.204 352.459 52.58C351.971 52.956 351.375 53.144 350.671 53.144ZM360.307 51.128C359.971 51.128 359.663 51.084 359.383 50.996L358.783 51.56C358.871 51.624 358.979 51.68 359.107 51.728C359.243 51.768 359.435 51.808 359.683 51.848C359.931 51.88 360.279 51.916 360.727 51.956C361.527 52.012 362.099 52.196 362.443 52.508C362.787 52.82 362.959 53.228 362.959 53.732C362.959 54.076 362.863 54.404 362.671 54.716C362.487 55.028 362.199 55.284 361.807 55.484C361.423 55.684 360.927 55.784 360.319 55.784C359.783 55.784 359.307 55.712 358.891 55.568C358.475 55.432 358.151 55.22 357.919 54.932C357.687 54.652 357.571 54.296 357.571 53.864C357.571 53.64 357.631 53.396 357.751 53.132C357.871 52.876 358.095 52.632 358.423 52.4C358.247 52.328 358.095 52.252 357.967 52.172C357.847 52.084 357.735 51.988 357.631 51.884V51.608L358.651 50.6C358.179 50.2 357.943 49.672 357.943 49.016C357.943 48.624 358.035 48.268 358.219 47.948C358.403 47.628 358.671 47.376 359.023 47.192C359.375 47 359.803 46.904 360.307 46.904C360.651 46.904 360.963 46.952 361.243 47.048H363.439V47.804L362.323 47.852C362.555 48.188 362.671 48.576 362.671 49.016C362.671 49.408 362.575 49.764 362.383 50.084C362.199 50.404 361.931 50.66 361.579 50.852C361.235 51.036 360.811 51.128 360.307 51.128ZM360.307 50.3C360.731 50.3 361.067 50.192 361.315 49.976C361.571 49.752 361.699 49.432 361.699 49.016C361.699 48.608 361.571 48.296 361.315 48.08C361.067 47.856 360.731 47.744 360.307 47.744C359.875 47.744 359.531 47.856 359.275 48.08C359.027 48.296 358.903 48.608 358.903 49.016C358.903 49.432 359.027 49.752 359.275 49.976C359.531 50.192 359.875 50.3 360.307 50.3ZM358.555 53.768C358.555 54.168 358.723 54.464 359.059 54.656C359.395 54.856 359.815 54.956 360.319 54.956C360.815 54.956 361.211 54.848 361.507 54.632C361.811 54.416 361.963 54.128 361.963 53.768C361.963 53.512 361.859 53.288 361.651 53.096C361.443 52.912 361.059 52.804 360.499 52.772C360.059 52.74 359.679 52.7 359.359 52.652C359.031 52.828 358.815 53.016 358.711 53.216C358.607 53.424 358.555 53.608 358.555 53.768ZM364.576 53V47.048H365.488L365.572 48.188C365.756 47.796 366.036 47.484 366.412 47.252C366.788 47.02 367.252 46.904 367.804 46.904V47.96H367.528C367.176 47.96 366.852 48.024 366.556 48.152C366.26 48.272 366.024 48.48 365.848 48.776C365.672 49.072 365.584 49.48 365.584 50V53H364.576ZM371.425 53.144C370.865 53.144 370.361 53.016 369.913 52.76C369.465 52.504 369.109 52.144 368.845 51.68C368.589 51.208 368.461 50.656 368.461 50.024C368.461 49.392 368.593 48.844 368.857 48.38C369.121 47.908 369.477 47.544 369.925 47.288C370.381 47.032 370.889 46.904 371.449 46.904C372.009 46.904 372.513 47.032 372.961 47.288C373.409 47.544 373.761 47.908 374.017 48.38C374.281 48.844 374.413 49.392 374.413 50.024C374.413 50.656 374.281 51.208 374.017 51.68C373.753 52.144 373.393 52.504 372.937 52.76C372.489 53.016 371.985 53.144 371.425 53.144ZM371.425 52.28C371.769 52.28 372.089 52.196 372.385 52.028C372.681 51.86 372.921 51.608 373.105 51.272C373.289 50.936 373.381 50.52 373.381 50.024C373.381 49.528 373.289 49.112 373.105 48.776C372.929 48.44 372.693 48.188 372.397 48.02C372.101 47.852 371.785 47.768 371.449 47.768C371.105 47.768 370.785 47.852 370.489 48.02C370.193 48.188 369.953 48.44 369.769 48.776C369.585 49.112 369.493 49.528 369.493 50.024C369.493 50.52 369.585 50.936 369.769 51.272C369.953 51.608 370.189 51.86 370.477 52.028C370.773 52.196 371.089 52.28 371.425 52.28ZM376.792 53L375.052 47.048H376.06L377.32 51.716L378.712 47.048H379.852L381.256 51.716L382.504 47.048H383.524L381.784 53H380.752L379.288 48.092L377.824 53H376.792ZM386.991 53C386.447 53 386.019 52.868 385.707 52.604C385.395 52.34 385.239 51.864 385.239 51.176V47.9H384.207V47.048H385.239L385.371 45.62H386.247V47.048H387.999V47.9H386.247V51.176C386.247 51.552 386.323 51.808 386.475 51.944C386.627 52.072 386.895 52.136 387.279 52.136H387.903V53H386.991ZM389.279 53V44.36H390.287V48.068C390.487 47.7 390.771 47.416 391.139 47.216C391.507 47.008 391.907 46.904 392.339 46.904C393.027 46.904 393.579 47.12 393.995 47.552C394.411 47.976 394.619 48.632 394.619 49.52V53H393.623V49.628C393.623 48.388 393.123 47.768 392.123 47.768C391.603 47.768 391.167 47.956 390.815 48.332C390.463 48.7 390.287 49.228 390.287 49.916V53H389.279ZM402.034 53.144C401.474 53.144 400.97 53.016 400.522 52.76C400.074 52.504 399.718 52.144 399.454 51.68C399.198 51.208 399.07 50.656 399.07 50.024C399.07 49.392 399.202 48.844 399.466 48.38C399.73 47.908 400.086 47.544 400.534 47.288C400.99 47.032 401.498 46.904 402.058 46.904C402.618 46.904 403.122 47.032 403.57 47.288C404.018 47.544 404.37 47.908 404.626 48.38C404.89 48.844 405.022 49.392 405.022 50.024C405.022 50.656 404.89 51.208 404.626 51.68C404.362 52.144 404.002 52.504 403.546 52.76C403.098 53.016 402.594 53.144 402.034 53.144ZM402.034 52.28C402.378 52.28 402.698 52.196 402.994 52.028C403.29 51.86 403.53 51.608 403.714 51.272C403.898 50.936 403.99 50.52 403.99 50.024C403.99 49.528 403.898 49.112 403.714 48.776C403.538 48.44 403.302 48.188 403.006 48.02C402.71 47.852 402.394 47.768 402.058 47.768C401.714 47.768 401.394 47.852 401.098 48.02C400.802 48.188 400.562 48.44 400.378 48.776C400.194 49.112 400.102 49.528 400.102 50.024C400.102 50.52 400.194 50.936 400.378 51.272C400.562 51.608 400.798 51.86 401.086 52.028C401.382 52.196 401.698 52.28 402.034 52.28ZM406.748 53V47.9H405.848V47.048H406.748V46.016C406.748 45.44 406.892 45.02 407.18 44.756C407.468 44.492 407.888 44.36 408.44 44.36H409.04V45.224H408.596C408.292 45.224 408.076 45.288 407.948 45.416C407.82 45.536 407.756 45.744 407.756 46.04V47.048H409.22V47.9H407.756V53H406.748ZM417.46 53V51.2H413.2V50.42L417.28 44.6H418.456V50.312H419.704V51.2H418.456V53H417.46ZM414.316 50.312H417.508V45.716L414.316 50.312ZM423.777 53.144C423.201 53.144 422.701 53.04 422.277 52.832C421.853 52.624 421.513 52.34 421.257 51.98C421.009 51.612 420.857 51.196 420.801 50.732H421.785C421.881 51.196 422.105 51.572 422.457 51.86C422.809 52.14 423.253 52.28 423.789 52.28C424.189 52.28 424.533 52.188 424.821 52.004C425.109 51.812 425.329 51.556 425.481 51.236C425.641 50.916 425.721 50.56 425.721 50.168C425.721 49.544 425.545 49.04 425.193 48.656C424.841 48.272 424.385 48.08 423.825 48.08C423.361 48.08 422.965 48.184 422.637 48.392C422.309 48.6 422.069 48.872 421.917 49.208H420.957L421.677 44.6H426.081V45.476H422.457L421.965 48.032C422.157 47.8 422.421 47.608 422.757 47.456C423.101 47.304 423.493 47.228 423.933 47.228C424.485 47.228 424.965 47.356 425.373 47.612C425.789 47.868 426.113 48.216 426.345 48.656C426.577 49.096 426.693 49.596 426.693 50.156C426.693 50.692 426.577 51.188 426.345 51.644C426.121 52.1 425.789 52.464 425.349 52.736C424.917 53.008 424.393 53.144 423.777 53.144ZM429.781 48.5C429.421 48.5 429.093 48.42 428.797 48.26C428.509 48.092 428.281 47.86 428.113 47.564C427.945 47.26 427.861 46.9 427.861 46.484C427.861 46.068 427.945 45.712 428.113 45.416C428.289 45.112 428.521 44.88 428.809 44.72C429.105 44.552 429.433 44.468 429.793 44.468C430.153 44.468 430.477 44.552 430.765 44.72C431.053 44.88 431.281 45.112 431.449 45.416C431.617 45.712 431.701 46.068 431.701 46.484C431.701 46.9 431.613 47.26 431.437 47.564C431.269 47.86 431.041 48.092 430.753 48.26C430.465 48.42 430.141 48.5 429.781 48.5ZM429.037 53L433.921 44.6H434.929L430.045 53H429.037ZM429.781 47.72C430.061 47.72 430.305 47.616 430.513 47.408C430.729 47.2 430.837 46.892 430.837 46.484C430.837 46.068 430.733 45.756 430.525 45.548C430.317 45.332 430.073 45.224 429.793 45.224C429.513 45.224 429.261 45.332 429.037 45.548C428.821 45.756 428.713 46.068 428.713 46.484C428.713 46.892 428.821 47.2 429.037 47.408C429.253 47.616 429.501 47.72 429.781 47.72ZM434.269 53.144C433.909 53.144 433.581 53.064 433.285 52.904C432.997 52.736 432.769 52.504 432.601 52.208C432.433 51.904 432.349 51.544 432.349 51.128C432.349 50.712 432.433 50.356 432.601 50.06C432.777 49.756 433.009 49.524 433.297 49.364C433.585 49.196 433.909 49.112 434.269 49.112C434.629 49.112 434.953 49.196 435.241 49.364C435.529 49.524 435.757 49.756 435.925 50.06C436.093 50.356 436.177 50.712 436.177 51.128C436.177 51.544 436.093 51.904 435.925 52.208C435.757 52.504 435.529 52.736 435.241 52.904C434.953 53.064 434.629 53.144 434.269 53.144ZM434.257 52.364C434.545 52.364 434.793 52.26 435.001 52.052C435.217 51.844 435.325 51.536 435.325 51.128C435.325 50.712 435.221 50.4 435.013 50.192C434.805 49.984 434.557 49.88 434.269 49.88C433.989 49.88 433.741 49.984 433.525 50.192C433.309 50.4 433.201 50.712 433.201 51.128C433.201 51.536 433.305 51.844 433.513 52.052C433.729 52.26 433.977 52.364 434.257 52.364Z" fill="white"/>
<defs>
<linearGradient id="paint0_linear_3275_15280" x1="279.838" y1="127.106" x2="279.838" y2="373.729" gradientUnits="userSpaceOnUse">
<stop stop-color="#F3F0FF"/>
<stop offset="1" stop-color="#F1EDFF" stop-opacity="0"/>
</linearGradient>
<linearGradient id="paint1_linear_3275_15280" x1="267" y1="0" x2="471.689" y2="193.705" gradientUnits="userSpaceOnUse">
<stop stop-color="#AC60E5"/>
<stop offset="1" stop-color="#0C87F0"/>
</linearGradient>
</defs>
</svg>
