<svg width="64" height="64" viewBox="0 0 64 64" fill="none" xmlns="http://www.w3.org/2000/svg">
<rect width="64" height="64" rx="10" fill="#0298EB"/>
<path fill-rule="evenodd" clip-rule="evenodd" d="M24.1539 48.0005C38.6459 48.0005 47.0299 36.7486 47.0299 26.0706C47.0299 25.7766 49.0899 24.0086 49.9719 20.3226C50.1519 19.5746 49.4239 18.9846 48.7379 19.2986C46.9779 20.1066 45.1919 19.4666 44.4159 18.5466C41.4319 15.2926 36.4419 15.1366 33.2679 18.1966C31.2219 20.1706 30.3539 23.1106 30.9879 25.9166C24.2859 26.3946 19.6839 23.2186 15.8999 18.8646C15.4119 18.2986 14.5059 18.5966 14.4039 19.3446C13.8439 23.5086 13.6679 33.6326 23.6999 39.4466C21.9579 41.9506 18.5479 43.4286 14.7519 44.0626C13.9119 44.2046 13.7119 45.3686 14.4799 45.7446C17.4879 47.2246 20.7939 47.9986 24.1539 47.9946" fill="#03133D"/>
<mask id="mask0_3270_8355" style="mask-type:luminance" maskUnits="userSpaceOnUse" x="14" y="16" width="36" height="33">
<path fill-rule="evenodd" clip-rule="evenodd" d="M24.1539 48.0005C38.6459 48.0005 47.0299 36.7486 47.0299 26.0706C47.0299 25.7766 49.0899 24.0086 49.9719 20.3226C50.1519 19.5746 49.4239 18.9846 48.7379 19.2986C46.9779 20.1066 45.1919 19.4666 44.4159 18.5466C41.4319 15.2926 36.4419 15.1366 33.2679 18.1966C31.2219 20.1706 30.3539 23.1106 30.9879 25.9166C24.2859 26.3946 19.6839 23.2186 15.8999 18.8646C15.4119 18.2986 14.5059 18.5966 14.4039 19.3446C13.8439 23.5086 13.6679 33.6326 23.6999 39.4466C21.9579 41.9506 18.5479 43.4286 14.7519 44.0626C13.9119 44.2046 13.7119 45.3686 14.4799 45.7446C17.4879 47.2246 20.7939 47.9986 24.1539 47.9946" fill="white"/>
</mask>
<g mask="url(#mask0_3270_8355)">
<rect x="8" y="8" width="48" height="48" fill="white"/>
</g>
</svg>
